<svg xmlns="http://www.w3.org/2000/svg" viewBox="0 0 913.2 355.32"><defs><style>.cls-1{fill:#030266;}.cls-2{fill:#ccad0e;}.cls-3{fill:#fff;}</style></defs><title>logo-5</title><g id="Layer_2" data-name="Layer 2"><g id="Layer_1-2" data-name="Layer 1"><path class="cls-1" d="M561.9,106.42c0-21.58,0-43.16,0-64.74a96.89,96.89,0,0,0-1.17-15c-1.62-10.13-7.45-16.22-17.3-18.62a37.31,37.31,0,0,0-6.5-1.26c-2.62-.15-1.54-1.93-1.72-3.16-.25-1.77,1.05-1.36,2-1.35,27.41.36,54.83.35,82.25.3,16,0,31.93-.12,47.87-.86A115.65,115.65,0,0,0,683.17.12c.83-.15,1.54-.42,1.34,1.07-1.94,14.57-1.66,29.19-.74,43.81,0,.52,0,1,.07,1.55.07.85.14,1.65-1.09,1.69-.93,0-1.83.4-2.34-.9-.93-2.4-2-4.73-3.07-7.08-5.09-11.5-13.83-18.4-26.22-20.36a138.19,138.19,0,0,0-43.25.11c-9,1.43-12.84,6.1-14,15.18a95.8,95.8,0,0,0-.64,11.72c-.05,13.16,0,26.31-.06,39.47,0,1.8.44,2.35,2.31,2.32,14.63-.21,29.26.29,43.89-.43a51.78,51.78,0,0,0,11.13-1.65c6.7-1.83,10.36-6.27,11.14-13,.25-2.19,1.52-1.63,2.75-1.75,1.64-.17,1.29,1,1.27,1.87-.39,16-.42,31.92,0,47.88,0,.82.36,2-1.16,1.69-1-.2-2.51.85-2.83-1.35-1.08-7.41-5.87-11.23-12.83-12.81-6.39-1.45-12.89-1.64-19.39-1.7-11.45-.11-22.91,0-34.36-.09-1.66,0-1.92.57-1.92,2,.05,18,0,36.07.14,54.1a6,6,0,0,1-1.95,4.76,45.78,45.78,0,0,1-28,13.83c-1.25.14-1.63,0-1.63-1.36q.06-37.14,0-74.28Z"/><path class="cls-1" d="M397.25,206.41q-20.29,0-40.57,0c-.83,0-2.27.72-2.2-1.18,0-1.25-.4-2.56,1.75-2.74a50.43,50.43,0,0,0,7.36-1.46c10.45-2.52,15.93-9.39,17.45-19.82a139.13,139.13,0,0,0,1-19.46c0-9.16,0-18.33,0-27.49a4.67,4.67,0,0,0-1.44-3.51c-5.48-5.79-11-11.59-16.3-17.51-1.32-1.47-1.94-1.24-3.2,0-16.22,15.65-31.67,32.05-46.89,48.66Q294.87,183,275.62,204.29a5,5,0,0,1-4.35,1.88c-14.34-.53-28.67-.44-43,.45-2,.13-3-.91-3-3,0-.86.56-.89,1.14-1,16.39-3.92,28.56-14.28,39.71-26.13Q304.93,135.26,343.65,94c.75-.81,1.34-1.33.25-2.47C325.06,71.78,307,51.33,287.44,32.33c-8.06-7.83-16.61-15.1-26.81-20.11C254.05,9,247.15,7,239.78,7.15c-2.9.07-1.65-1.87-1.89-3.12-.3-1.52.44-1.8,1.85-1.77,26.16.55,52.32.46,78.48,0,1.49,0,2.11.4,1.8,1.82-.25,1.16,1.09,3.22-1.69,3.06a20.92,20.92,0,0,0-5.95.47c-4.8,1.09-6.88,4.43-5.7,9.24a29.35,29.35,0,0,0,4.8,9.64c6.57,9.43,14.52,17.68,22.37,26,25.82,27.43,51.36,55.12,77.47,82.28a7.24,7.24,0,0,1,2.13,5.46c0,12-.46,23.95.36,35.91a50.54,50.54,0,0,0,1.52,9.38c2.33,8.91,8.59,13.58,17.12,15.75a31.77,31.77,0,0,0,5.85,1.11c2.31.13,1.73,1.64,1.78,2.93.08,1.79-1.29,1-2,1q-20.4.06-40.79,0Z"/><path class="cls-2" d="M413.38,128.81c-2.18-2.17-4-3.48-4-6.5.11-29.93.07-59.86.07-89.79,0-.59,0-1.18,0-1.78,0-1.66.05-3.45-2.21-3.65s-3.16.89-3.17,3.6v87.89c-2-1.45-3.32-2.74-3.32-5.22q.11-40.9.05-81.8a16.45,16.45,0,0,0-.17-2.43A2.3,2.3,0,0,0,398,27a2.45,2.45,0,0,0-2.67,2.12,11.59,11.59,0,0,0-.08,2.21q0,37.8,0,75.6v2.53c-2.45-2.33-4.05-4.28-4-7.77.2-23.5.12-47,.11-70.5a10.13,10.13,0,0,0-.18-2A2.48,2.48,0,0,0,388.55,27,2.27,2.27,0,0,0,386,29.27a59.43,59.43,0,0,0-.19,6q0,31.26,0,62.52c0,.36-.05.71-.1,1.6-1.92-1.94-3.83-3.12-3.82-6,.06-19,.08-38-.11-57-.06-6.32-.86-12.6-4-18.32-3-5.5-8.06-8.06-13.79-9.62-2.84-.78-5.73-1.29-8.63-1.81-1.81-.33-.72-2.05-.91-3.12-.25-1.41.83-1.26,1.72-1.25,9.38,0,18.77.12,28.15.12q26.72,0,53.43-.11a2.59,2.59,0,0,1,2.41,3.91c-.36.68-1,.44-1.57.54-5.56,1-11.11,2.1-15.89,5.43a18.66,18.66,0,0,0-7.13,10.52c-2,6.88-2.17,14-2.18,21.05q-.06,41.35,0,82.7Z"/><path class="cls-1" d="M502.51,103.86c0,20.62,0,40.56,0,60.5,0,3.33.21,6.64.53,9.95.81,8.34,4.69,12.69,13.32,13.58,17.32,1.79,34.66,1.93,51.81-1.67A43.13,43.13,0,0,0,591.89,173c.28-.31.49-.75,1.2-.78-1.9,8.54-3.8,17-9.41,24-5.27,6.59-12.39,9.74-20.64,10-10.48.29-21,.14-31.47.16q-42.45.06-84.89.17c-2.11,0-2.43-.71-2.32-2.5.07-1,.32-1.31,1.33-1.48,2.54-.42,5.07-1,7.56-1.62,10.21-2.68,15.43-9.6,16.91-19.81a134.22,134.22,0,0,0,.95-19c0-7.68,0-15.36,0-23.05a4.36,4.36,0,0,1,1.33-3.3c6.71-7.06,13.38-14.17,20.06-21.26Z"/><path class="cls-2" d="M498.87,98.74V93.07q0-30.7,0-61.41a10,10,0,0,0,0-1.55c-.24-1.64-.75-3.06-2.8-3.06s-2.69,1.25-2.74,3c-.07,2.06-.05,4.13-.05,6.2,0,21.65-.12,43.31.07,65a9.15,9.15,0,0,1-3.82,8.07c-.51-.73-.26-1.55-.26-2.32q0-38.13,0-76.26c0-1.86-.19-3.47-2.49-3.64-1.74-.13-2.85.61-2.87,2.49,0,2.29,0,4.59,0,6.88q0,38.57.06,77.14c0,2.41-1.57,3.44-3.11,4.91a8.89,8.89,0,0,1-.34-3.75q0-40.78,0-81.58c0-1.26,0-2.51-.07-3.77-.05-1.66-1-2.35-2.59-2.34s-2.7.71-2.72,2.48c0,3.91,0,7.83,0,11.75,0,27.12,0,54.24.1,81.36,0,2.63-1.7,3.76-3,5.27-.69.8-.8-.36-.82-.85-.13-2.87-.07-5.74-.06-8.61q.11-33.81,0-67.61a196.49,196.49,0,0,0-.74-20.59c-.5-4.59-1.49-9.11-4-13.11-3.72-5.85-9.63-8.07-16-9.56a35.29,35.29,0,0,0-4.77-.84c-1.08-.09-1.3-.53-1.37-1.51-.19-3-.22-3,2.73-3q40.46.29,80.91,0c1,0,2.26-.28,2,1.43-.21,1.2,1,2.77-1.69,3.15-6,.83-11.89,2.05-16.88,5.84-3.91,3-6,7-7.15,11.66-1.84,7.54-1.78,15.21-1.77,22.89,0,15.59,0,31.18.05,46.77C502.58,96.52,500.48,97.26,498.87,98.74Z"/><path class="cls-3" d="M913,306c.06,1.08.13,1.84.15,2.6s0,1.77,0,3H0V306Z"/><path class="cls-3" d="M18.91,259.51c0,9.57-.07,18.12,0,26.66,0,3.41,1.66,5.55,5.46,5.39A3.19,3.19,0,0,1,27,292.74H1.54l-.09-.83a8,8,0,0,1,1.94-.55c3.37,0,4.4-2.13,4.51-5,.19-4.86.42-9.72.45-14.59.07-11.14,0-22.28,0-33.42,0-8.77,0-8.77-7.9-11.51H25.13l.15.37a13.74,13.74,0,0,1-2.17.71c-2.57.38-3.9,1.87-3.91,4.41-.05,7.53,0,15.05,0,22.68.2,0,.71.12.88-.07,6.66-7.25,13.41-14.43,19.85-21.88,2.5-2.89,2.18-3.17-.13-6.36H60.27l.17.54c-.47.23-.94.49-1.43.7-3.12,1.34-6.91,1.95-9.26,4.12C42,239.22,34.69,247,26.8,254.88c5.11,5.9,10,11.77,15.15,17.42,3.7,4.07,7.7,7.86,11.62,11.73,4.15,4.08,8.86,7.21,14.85,7.83-.15.6-.18,1-.26,1C57.64,294,47.5,294.21,40,284.55c-6-7.67-12.49-14.92-18.77-22.35C20.67,261.54,20.1,260.89,18.91,259.51Z"/><path class="cls-3" d="M854.7,293H838.45c5.51-.88,5.26-5.3,5.84-9.19q3.32-22,6.63-44c.18-1.21.51-2.4.77-3.61l1.33-.38c6.81,14.25,13.63,28.5,20.88,43.66l20.35-43.42,1.11,0a27.61,27.61,0,0,1,1,3.59q3,20.54,5.87,41.07c.8,5.65.56,12.06,9,12.1H895c-1.55-12.54-3-24.46-4.49-36.38l-1-.17L872.32,292.9l-1.32.34-17.37-35.81-.74-.06c-.5,4.09-1,8.19-1.52,12.28-.62,4.69-1.3,9.38-1.93,14.08C848.55,290.41,848.55,290.41,854.7,293Z"/><path class="cls-3" d="M580.94,236.38h17.82c-4.26,1.59-3,4.65-2.09,7.6q4.13,14.18,8.26,28.37c.42,1.43,1,2.81,1.84,5.23,5.25-14.31,10.14-27.64,15-41l1.44,0c5.39,13.14,10.77,26.28,16.57,40.43,1.13-3.88,2-6.76,2.83-9.65,2.22-7.75,4.37-15.52,6.68-23.24,1-3.43,1.78-6.52-3.11-7.64h14.92c-5.34,1.29-5.82,6-7.15,10.09-4.54,13.73-9,27.49-13.52,41.23-.54,1.67-1.27,3.27-1.91,4.91l-1.35.29L620.6,252.58l-15.6,40-1.51-.12a34.34,34.34,0,0,1-1.78-3.79c-5.1-15.3-10.22-30.59-15.16-45.94C585.57,239.71,584.28,237.41,580.94,236.38Z"/><path class="cls-3" d="M207.15,236.55a4.69,4.69,0,0,1,1.27-.37c10,0,20-.09,30,.22,16.58.51,27.25,10.53,27.8,25.77.61,16.75-9.73,29.63-26.1,30.8-10.45.74-21-.44-31.81-1.11,4.78-.21,5.22-3.4,5.25-6.88q.14-21.53.27-43.05c0-2.57-1.33-4-3.87-4.43-.92-.14-1.86-.26-2.79-.39Zm49.23,30c.48-17.94-11.85-28-30-26.88-1.14.07-3.1,1.78-3.11,2.74-.17,13.81-.1,27.62,0,41.42,0,2.95,1.58,4.71,4.54,5.29,5.78,1.15,11.55,1,17-1.21C254.15,283.94,256.52,275.85,256.38,266.53Z"/><path class="cls-3" d="M178.25,236.28h19.38c-5.65.46-5.67,4.57-5.73,8.51-.21,14.1-.35,28.2-.56,42.29,0,2.12-.26,4.24-.48,7.6-15.59-13.5-28.28-28.28-42-43.07-.15,1.78-.33,2.84-.31,3.9.18,9.61.34,19.22.61,28.83.15,5.66.39,5.83,6.25,7.09a12.33,12.33,0,0,1,2.11,1.37h-20.4c7.08-.88,6.06-6.17,6.13-10.78q.38-21.54.71-43.06c0-.88.12-1.76.28-3.8a36.76,36.76,0,0,1,4.69,3.45q17.46,18.38,34.82,36.86c.75.79,1.58,1.5,3.12,2.95,0-2.4,0-3.87,0-5.34-.16-8.58-.34-17.17-.48-25.75C186.22,239.1,186.24,239.1,178.25,236.28Z"/><path class="cls-3" d="M304.45,235.9c17.84-.08,28.58,10.13,28.71,27.28C333.29,281,321,293.25,303,293.34c-16.28.09-28.17-12.34-28.18-29.46C274.8,247.75,287.28,236,304.45,235.9Zm-20.2,27.59c.95,3.7,1.66,8.7,3.51,13.24A19.59,19.59,0,0,0,309,289.17c7.8-1.05,12.31-6.54,13.89-16.94.06-.38.18-.75.21-1.13.62-8.73.21-17.26-5.7-24.41a18.93,18.93,0,0,0-18.87-6.94c-7.15,1.27-10.88,6.37-12.66,12.95C285,255.76,284.88,259,284.25,263.49Z"/><path class="cls-3" d="M336.36,236.27c.93-.09,1.85-.25,2.78-.26,6.91,0,13.81,0,20.72-.11,10.19-.1,16.95,5.49,16.7,13.91a17.54,17.54,0,0,1-6.34,13.48c-2.87,2.37-3.31,4.2-.56,7.06A115.42,115.42,0,0,1,377.3,280c4.29,5.55,8.31,11.45,16.91,12.19-6.53,2.78-16,1.29-19.91-3.28a94.15,94.15,0,0,1-10.39-14.22c-2.8-4.88-6.42-6-12.18-4.63.28,6.18.16,12.58,1.12,18.81.25,1.64,3.83,2.76,5.68,4H337.6c1.75-1,3.92-1.63,4.82-3s.81-3.7.83-5.59c.08-13.84.06-27.67.14-41.5,0-3.22-1.43-4.72-4.56-4.88a16.35,16.35,0,0,1-2.45-.49Zm31.76,17.19c-.1-9.51-5.06-14.93-13.2-14a3.82,3.82,0,0,0-2.59,2.64c-.22,6.88-.17,13.77,0,20.66a3.41,3.41,0,0,0,1.58,2.56,9.38,9.38,0,0,0,13.24-5.91A41.29,41.29,0,0,0,368.12,253.46Z"/><path class="cls-3" d="M775.88,292.81c5.23-.09,5.58-3.95,5.62-7.64.14-14.35.12-28.69.14-43,0-2.6-1.35-4-4-4.24-1.07-.09-2.13-.34-3.19-.52,0-.34,0-.67,0-1A18.58,18.58,0,0,1,777,236c6.9-.05,13.81-.09,20.72-.05a27.27,27.27,0,0,1,5.34.48c10.23,2.11,14.83,11.59,9.9,20.85a35.45,35.45,0,0,1-6,7.43c-1.34,1.39-1.6,2.33-.36,3.87,4.65,5.78,8.86,12,13.93,17.34,2.88,3.05,7.11,4.83,10.35,6.94-5.9,2.44-15.31.24-19.94-5.55a94.28,94.28,0,0,1-9-12.88c-2.68-4.79-6.32-5.76-12-4.4.28,6.31.2,12.83,1.12,19.2.22,1.48,3.83,2.46,5.72,3.58Zm30.89-39.23c-.46-9.47-5.18-14.6-13.27-14.25-2.28.1-3.17.89-3.14,3.19.1,6.65,0,13.29.11,19.93a3.66,3.66,0,0,0,1.29,2.77c4.08,2.32,10.57.5,12.61-3.71C805.56,259.05,806,256.23,806.77,253.58Z"/><path class="cls-3" d="M714.89,260c0,9.12-.07,17.82,0,26.51,0,3.17,1.77,4.93,5.14,4.83a4,4,0,0,1,3.08,1.18h-26c0-.2,0-.6.12-.64,5.68-1.81,5.91-1.8,6-8,.24-16.26.16-32.53.4-48.8.09-5.52-3-7-8.25-6.59l.58-1.17h41c-.27,3.45-.58,7.37-.89,11.29l-.81.11a6.84,6.84,0,0,1-.68-1.8,4.73,4.73,0,0,0-4.71-4.71c-4.94-.3-9.91-.09-15.1-.09v23.44c6.7-.45,13.43,1.48,20.09-1.88l-1,12.74-.79.11a5.9,5.9,0,0,0-.79-2.11c-1.49-1.54-3-3.92-4.75-4.19C723.51,259.53,719.26,260,714.89,260Z"/><path class="cls-3" d="M530.77,279.72c-.6,3.93-1.07,7.88-1.91,11.76-.16.74-1.75,1.67-2.68,1.68-13,.11-25.91.07-39.2-.68,7.66-1.06,6.77-6.88,6.84-11.54.24-15.35.13-30.72.09-46.08,0-5.05-.34-5.29-8.47-8H512.5c-.61.42-.92.79-1.28.85-6.34,1.06-6.47,1.16-6.49,7.5,0,14.72-.09,29.44,0,44.16,0,7.16,1.74,8.7,8.89,8.94.77,0,1.54,0,2.31,0,9.67,0,10.17-.27,13.71-8.72Z"/><path class="cls-3" d="M101.32,235.77c1,1.94,1.7,3.09,2.19,4.33,5.63,14.41,11.2,28.84,16.87,43.22,1.72,4.36,3.76,8.54,9.75,8.35l-.31,1h-16.6a31,31,0,0,0-.58-5.1c-.74-2.57-1.8-5-2.72-7.57-2.71-7.42-.86-6.16-9-6.21-10-.07-10,0-13.37,9.48-.26.72-.52,1.44-.76,2.17-1.44,4.44-1.07,5.14,3.36,6.77H73.32c7-.39,7.85-6.25,9.73-11.05,5.39-13.68,10.62-27.42,16-41.13A44.9,44.9,0,0,1,101.32,235.77Zm5,34.47c-2.3-6.49-4.38-12.36-6.47-18.24l-.93.09-6.41,18.15Z"/><path class="cls-3" d="M564.62,236.56c1,2.29,2,4.57,2.94,6.89q7.58,19.28,15.1,38.57c1.88,4.79,3.47,9.9,10.5,9.65l-.52,1.11H576a40.15,40.15,0,0,0-.74-5.57c-.71-2.45-1.76-4.8-2.64-7.2-2.26-6.21-2.25-6.21-8.66-6.22-10.29,0-10.29,0-13.71,9.53-.13.36-.26.72-.4,1.08-2,5.53-2,5.54,3.56,8H536.11c6.24-.66,7.57-5.67,9.34-10.27q8.16-21.11,16.35-42.19c.45-1.15,1.09-2.22,1.65-3.33Zm-9.41,33.62H569L562.54,252l-.94.18C559.53,258,557.45,263.86,555.21,270.18Z"/><path class="cls-3" d="M427.09,236.53c1.17,2.75,2.42,5.46,3.51,8.24q7.22,18.39,14.36,36.82c3,7.72,3.13,7.86,10,11.2h-16.7c-.16-2.07,0-3.94-.5-5.6a84.57,84.57,0,0,0-4-10.78c-.53-1.15-2.15-2-3.47-2.53a9.85,9.85,0,0,0-3.8-.08c-3.42.18-8.53-.9-9.89.88-2.81,3.66-3.89,8.79-5.05,13.46-.28,1.13,1.91,2.87,2.86,4.17H398.61c6.4-.57,7.6-5.8,9.4-10.46q7.89-20.4,15.77-40.79c.58-1.51,1.37-2.95,2.06-4.42Zm4.38,33.63L425,251.88l-.87.1-6.45,18.18Z"/><path class="cls-3" d="M766.22,292.59H744.7c6.11-.9,5.29-5.75,5.33-9.68.12-13.44,0-26.89-.06-40.33,0-2.78-.85-4.75-4-4.94a2.24,2.24,0,0,1-1.7-1.4h20.92c-5.92,2.62-6,2.62-6,9.18q-.06,18.43,0,36.88C759.14,290.11,759.16,290.11,766.22,292.59Z"/><path class="cls-3" d="M245.71,347.21H235.34v-1.5a7.33,7.33,0,0,0,1.92-.18.83.83,0,0,0,.6-.89,2.77,2.77,0,0,0-.2-1l-1-2.59h-7.13l-.54,1.43a5.71,5.71,0,0,0-.45,1.73,1.14,1.14,0,0,0,.75,1.23,5.22,5.22,0,0,0,1.76.26v1.5h-7.57v-1.5a3.19,3.19,0,0,0,1.54-.34,3.38,3.38,0,0,0,1.21-1.29,18,18,0,0,0,1.24-2.68l6.34-16.61h1.54l6.7,17.13c.49,1.21.84,2,1.07,2.46a2.56,2.56,0,0,0,.94,1,3.42,3.42,0,0,0,1.69.34ZM236,339.47l-3-7.67-2.89,7.67Z"/><path class="cls-3" d="M257.83,344.32a6.51,6.51,0,0,1-2,2.63,4.75,4.75,0,0,1-2.74.79,4.24,4.24,0,0,1-2.82-.78,3.18,3.18,0,0,1-1.12-1.74,10.24,10.24,0,0,1-.21-2.17v-7.64h-2.45v-1.49a5.72,5.72,0,0,0,2.67-.58,4.69,4.69,0,0,0,1.8-1.58,5.37,5.37,0,0,0,.83-2.12h1.33v4.28h4.59v1.49h-4.59v7.74a7.64,7.64,0,0,0,.19,2,.85.85,0,0,0,.92.62,1.58,1.58,0,0,0,1.28-.61,8.58,8.58,0,0,0,1-1.51Z"/><path class="cls-3" d="M270,344.32a6.49,6.49,0,0,1-2,2.63,4.78,4.78,0,0,1-2.75.79,4.28,4.28,0,0,1-2.82-.78,3.24,3.24,0,0,1-1.12-1.74,10.24,10.24,0,0,1-.21-2.17v-7.64h-2.45v-1.49a5.79,5.79,0,0,0,2.68-.58,4.66,4.66,0,0,0,1.79-1.58,5.25,5.25,0,0,0,.84-2.12h1.33v4.28h4.59v1.49h-4.59v7.74a8.2,8.2,0,0,0,.18,2,.86.86,0,0,0,.92.62,1.57,1.57,0,0,0,1.28-.61,8,8,0,0,0,1-1.51Z"/><path class="cls-3" d="M287.61,340.52a6.75,6.75,0,0,1-4,6.35,9.15,9.15,0,0,1-4,.87,9.6,9.6,0,0,1-3.87-.79,7.11,7.11,0,0,1-3-2.42,6.68,6.68,0,0,1-1.16-4,6.31,6.31,0,0,1,2.4-5.35,9.13,9.13,0,0,1,5.71-1.82,8.75,8.75,0,0,1,4.25,1,6.67,6.67,0,0,1,2.7,2.61A7.17,7.17,0,0,1,287.61,340.52Zm-4.48-.09a9.22,9.22,0,0,0-.73-4.16,2.9,2.9,0,0,0-2.84-1.39,3.22,3.22,0,0,0-2.1.61,3.28,3.28,0,0,0-1,1.88,14.84,14.84,0,0,0-.3,3.3,10.42,10.42,0,0,0,.66,4c.45,1,1.41,1.54,2.91,1.54a2.89,2.89,0,0,0,2.24-.85,4,4,0,0,0,1-2.11A16.38,16.38,0,0,0,283.13,340.43Z"/><path class="cls-3" d="M303.62,336a1.91,1.91,0,0,1-.58,1.48,1.87,1.87,0,0,1-1.35.55,2,2,0,0,1-1.62-.91,4.93,4.93,0,0,0-.54-.59,1,1,0,0,0-.6-.17,2.16,2.16,0,0,0-2,1.37,6.13,6.13,0,0,0-.71,2.84v2.83a3.52,3.52,0,0,0,.35,1.86c.24.34.85.5,1.84.5h.86v1.5H289.23v-1.5h.84c.91,0,1.47-.17,1.67-.52a3.81,3.81,0,0,0,.31-1.84v-4.74a3.93,3.93,0,0,0-.22-1.56,1.11,1.11,0,0,0-.78-.62,7.26,7.26,0,0,0-1.82-.16v-1.49l6.33-1.39a22,22,0,0,1,.45,3.52,6.91,6.91,0,0,1,1.19-1.76,6.53,6.53,0,0,1,1.66-1.28,4,4,0,0,1,1.87-.48,2.91,2.91,0,0,1,2.11.74A2.42,2.42,0,0,1,303.62,336Z"/><path class="cls-3" d="M323.86,347.21h-8.4v-1.5a2.72,2.72,0,0,0,1.37-.25,1,1,0,0,0,.51-.74,8.6,8.6,0,0,0,.1-1.6v-4.59a4.86,4.86,0,0,0-.41-2.18,1.66,1.66,0,0,0-1.65-.81,2.81,2.81,0,0,0-2.54,1.31,5.42,5.42,0,0,0-.83,3v3.63a2.93,2.93,0,0,0,.37,1.75c.25.32.78.47,1.6.47v1.5h-8.56v-1.5a5,5,0,0,0,1.56-.18,1.07,1.07,0,0,0,.66-.67,5,5,0,0,0,.16-1.51v-5.24a1.89,1.89,0,0,0-.43-1.49,3.59,3.59,0,0,0-1.95-.35v-1.49l6.31-1.39a11.08,11.08,0,0,1,.15,1.75c0,.14,0,.26,0,.36s0,.22,0,.35a10.66,10.66,0,0,1,2.12-1.77,5.14,5.14,0,0,1,2.76-.69,6,6,0,0,1,2.51.5,3.84,3.84,0,0,1,1.74,1.52,4.63,4.63,0,0,1,.63,2.47v5.47a3.39,3.39,0,0,0,.37,1.86c.24.34.87.5,1.87.5Z"/><path class="cls-3" d="M340.25,340.07h-10c0,.2,0,.64.09,1.31a7.87,7.87,0,0,0,.45,2.06,3.92,3.92,0,0,0,1.32,1.78,4,4,0,0,0,2.5.72,6.11,6.11,0,0,0,2.08-.44,4.48,4.48,0,0,0,2.11-1.68l1.26.86a6.63,6.63,0,0,1-6.08,3.06,10.45,10.45,0,0,1-3.4-.53,7.62,7.62,0,0,1-2.6-1.5,6.5,6.5,0,0,1-1.64-2.25,6.89,6.89,0,0,1-.57-2.79,7.23,7.23,0,0,1,.95-3.63,6.83,6.83,0,0,1,2.72-2.66,8.12,8.12,0,0,1,4-1,6.92,6.92,0,0,1,3.75.95,5.93,5.93,0,0,1,2.27,2.48A7.54,7.54,0,0,1,340.25,340.07Zm-4-1.49q0-3.7-2.92-3.7a2.52,2.52,0,0,0-2.16,1,4.87,4.87,0,0,0-.84,2.68Z"/><path class="cls-3" d="M358,335.41a2.79,2.79,0,0,0-1.09.36,2.44,2.44,0,0,0-.7.8c-.21.37-.59,1.1-1.13,2.2l-4.75,9.86c-1.06,2.18-1.78,3.62-2.17,4.34a5.92,5.92,0,0,1-1.3,1.71,2.66,2.66,0,0,1-1.82.64,2,2,0,0,1-1.3-.46,1.44,1.44,0,0,1-.55-1.15,1.59,1.59,0,0,1,.67-1.43,6.37,6.37,0,0,1,1.75-.76,3.82,3.82,0,0,0,2.2-1.54,13.64,13.64,0,0,0,1.32-2.45L343,336.65a2.8,2.8,0,0,0-.8-1,1.91,1.91,0,0,0-1-.22v-1.49h7.87v1.49h-.5c-.75,0-1.12.18-1.12.54a2.83,2.83,0,0,0,.45,1.12l3.43,6,2.53-5.15a4.45,4.45,0,0,0,.53-1.51.83.83,0,0,0-.48-.75,2.24,2.24,0,0,0-1.12-.27v-1.49H358Z"/><path class="cls-3" d="M373.27,343.35a3.59,3.59,0,0,1-.83,2.38,5.16,5.16,0,0,1-2.29,1.5,10.08,10.08,0,0,1-3.35.51,13.42,13.42,0,0,1-2.58-.25,8.77,8.77,0,0,1-2.27-.75l-.63.9h-1.27l-.16-4.21h1.36a4,4,0,0,0,1.64,1.95,6.62,6.62,0,0,0,3.72.87,10.73,10.73,0,0,0,1.33-.09,3.43,3.43,0,0,0,1.37-.49,1.37,1.37,0,0,0,.65-1.25,1.12,1.12,0,0,0-.67-1.07,14.8,14.8,0,0,0-2.52-.8c-1.49-.38-2.72-.74-3.67-1.08a6.52,6.52,0,0,1-2.41-1.47,3.26,3.26,0,0,1-1-2.46,3.44,3.44,0,0,1,1.76-3,8.53,8.53,0,0,1,4.61-1.11,11.07,11.07,0,0,1,2.86.29,10.93,10.93,0,0,1,1.8.63l.39-.83h1.29v3.77h-1.33a2.48,2.48,0,0,0-.81-1.22,4.28,4.28,0,0,0-1.68-.85,8.75,8.75,0,0,0-2.42-.3,10.78,10.78,0,0,0-2.26.24c-.76.16-1.13.55-1.13,1.15a.87.87,0,0,0,.22.62,1.94,1.94,0,0,0,.75.45,17,17,0,0,0,1.88.55l1.61.41a17.08,17.08,0,0,1,4.34,1.64A3.59,3.59,0,0,1,373.27,343.35Z"/><path class="cls-3" d="M406.64,342.26a7.84,7.84,0,0,1-.58,2.5,5,5,0,0,1-1.52,2,3.92,3.92,0,0,1-2.55.82,4.8,4.8,0,0,1-1.5-.24,5.67,5.67,0,0,1-1.6-.87,19.73,19.73,0,0,1-2.13-1.89,11.79,11.79,0,0,1-3.3,2.29,7.84,7.84,0,0,1-3.2.74,6.13,6.13,0,0,1-3.16-.82,5.86,5.86,0,0,1-2.16-2.18,5.73,5.73,0,0,1-.77-2.88,6.44,6.44,0,0,1,1.73-4.42,10.72,10.72,0,0,1,3.29-2.56,19,19,0,0,1-1.26-2.53,6.45,6.45,0,0,1-.43-2.38,5.17,5.17,0,0,1,.47-2.23,4.48,4.48,0,0,1,1.21-1.59,5.32,5.32,0,0,1,1.68-.94,5.92,5.92,0,0,1,1.9-.32,4.72,4.72,0,0,1,2.45.62,4.38,4.38,0,0,1,1.6,1.6,4.05,4.05,0,0,1,.55,2,4.62,4.62,0,0,1-1,2.76,8.24,8.24,0,0,1-2.94,2.38l5,6.55a20.14,20.14,0,0,0,1.6-2.28,4.38,4.38,0,0,0,.69-2.24,1.85,1.85,0,0,0-.32-.89c-.21-.36-.66-.54-1.37-.54v-1.49h6.67v1.49a4.38,4.38,0,0,0-1.44.55,4.21,4.21,0,0,0-1,.92c-.29.37-.76,1.09-1.43,2.15l-.7,1.13a18.79,18.79,0,0,1-1.77,2.39,11.05,11.05,0,0,0,1.82,2.05,3.05,3.05,0,0,0,1.94.92,1.63,1.63,0,0,0,.85-.24,2,2,0,0,0,.71-.84,4.47,4.47,0,0,0,.42-1.55Zm-10.83,1.23-5.71-7.41a4.21,4.21,0,0,0-2.44,3.62,5.16,5.16,0,0,0,.65,2.44,5.76,5.76,0,0,0,1.74,2,3.94,3.94,0,0,0,4.14.37A11.58,11.58,0,0,0,395.81,343.49ZM395.14,329a3.1,3.1,0,0,0-.25-1.25,2.28,2.28,0,0,0-.77-.94,2.06,2.06,0,0,0-1.23-.37,2,2,0,0,0-1.61.66,2.12,2.12,0,0,0-.58,1.47,7.81,7.81,0,0,0,1.81,4.38,11.92,11.92,0,0,0,1.91-1.75A3.29,3.29,0,0,0,395.14,329Z"/><path class="cls-3" d="M438.35,347h-1.52a7.37,7.37,0,0,0-1.12-2.5,12.76,12.76,0,0,1-2.82,2.21,8.63,8.63,0,0,1-4.3.92,10.94,10.94,0,0,1-9.56-5.47,11.43,11.43,0,0,1-1.5-5.83,12.06,12.06,0,0,1,.81-4.4,11.22,11.22,0,0,1,2.34-3.68,11,11,0,0,1,3.62-2.5,11.38,11.38,0,0,1,4.6-.91,9.26,9.26,0,0,1,6.81,2.69,10.2,10.2,0,0,0,.7-2h1.46l.26,8.09h-1.56a9.86,9.86,0,0,0-1.53-3.67,7.62,7.62,0,0,0-2.62-2.45,6.35,6.35,0,0,0-3.17-.86,5.69,5.69,0,0,0-3.32,1,6.55,6.55,0,0,0-2.31,3.09,13.85,13.85,0,0,0-.84,5.17,15.29,15.29,0,0,0,.7,5,7.73,7.73,0,0,0,1.73,3,5.73,5.73,0,0,0,2.06,1.39,6,6,0,0,0,2,.36,6.32,6.32,0,0,0,3.59-1.07,8.77,8.77,0,0,0,2.62-2.7,10.2,10.2,0,0,0,1.37-3.24h1.55Z"/><path class="cls-3" d="M457.8,340.52a6.76,6.76,0,0,1-4,6.35,9.19,9.19,0,0,1-4,.87A9.6,9.6,0,0,1,446,347a7,7,0,0,1-3-2.42,6.61,6.61,0,0,1-1.16-4,6.31,6.31,0,0,1,2.4-5.35,9.13,9.13,0,0,1,5.71-1.82,8.75,8.75,0,0,1,4.25,1,6.67,6.67,0,0,1,2.7,2.61A7.16,7.16,0,0,1,457.8,340.52Zm-4.47-.09a9.36,9.36,0,0,0-.73-4.16,2.91,2.91,0,0,0-2.84-1.39,2.88,2.88,0,0,0-3.16,2.49,14.84,14.84,0,0,0-.3,3.3,10.22,10.22,0,0,0,.67,4c.44,1,1.41,1.54,2.9,1.54a2.91,2.91,0,0,0,2.25-.85,4.19,4.19,0,0,0,1-2.11A17.42,17.42,0,0,0,453.33,340.43Z"/><path class="cls-3" d="M478.31,347.21H469.9v-1.5a2.79,2.79,0,0,0,1.38-.25,1.08,1.08,0,0,0,.51-.74,9.88,9.88,0,0,0,.09-1.6v-4.59a4.88,4.88,0,0,0-.4-2.18,1.67,1.67,0,0,0-1.66-.81,2.82,2.82,0,0,0-2.54,1.31,5.51,5.51,0,0,0-.83,3v3.63a2.93,2.93,0,0,0,.37,1.75,2,2,0,0,0,1.61.47v1.5h-8.57v-1.5a4.93,4.93,0,0,0,1.56-.18,1.06,1.06,0,0,0,.67-.67,5.41,5.41,0,0,0,.16-1.51v-5.24a1.89,1.89,0,0,0-.44-1.49,3.54,3.54,0,0,0-1.95-.35v-1.49l6.31-1.39a11.08,11.08,0,0,1,.15,1.75c0,.14,0,.26,0,.36s0,.22,0,.35a10.43,10.43,0,0,1,2.13-1.77,5.09,5.09,0,0,1,2.76-.69,5.91,5.91,0,0,1,2.5.5,3.92,3.92,0,0,1,1.75,1.52,4.63,4.63,0,0,1,.63,2.47v5.47a3.4,3.4,0,0,0,.36,1.86c.25.34.87.5,1.88.5Z"/><path class="cls-3" d="M493.75,343.35a3.55,3.55,0,0,1-.84,2.38,5.07,5.07,0,0,1-2.28,1.5,10.12,10.12,0,0,1-3.35.51,13.27,13.27,0,0,1-2.58-.25,8.64,8.64,0,0,1-2.27-.75l-.63.9h-1.27l-.16-4.21h1.36a3.91,3.91,0,0,0,1.64,1.95,6.58,6.58,0,0,0,3.71.87,10.61,10.61,0,0,0,1.33-.09,3.33,3.33,0,0,0,1.37-.49,1.38,1.38,0,0,0,.66-1.25,1.12,1.12,0,0,0-.67-1.07,14.8,14.8,0,0,0-2.52-.8c-1.5-.38-2.72-.74-3.67-1.08a6.64,6.64,0,0,1-2.42-1.47,3.26,3.26,0,0,1-1-2.46,3.46,3.46,0,0,1,1.76-3,8.56,8.56,0,0,1,4.62-1.11,10.94,10.94,0,0,1,2.85.29,10.31,10.31,0,0,1,1.8.63l.39-.83h1.3v3.77h-1.33a2.48,2.48,0,0,0-.81-1.22,4.28,4.28,0,0,0-1.68-.85,8.85,8.85,0,0,0-2.42-.3,10.87,10.87,0,0,0-2.27.24c-.75.16-1.12.55-1.12,1.15a.91.91,0,0,0,.21.62,2.07,2.07,0,0,0,.76.45,16.37,16.37,0,0,0,1.88.55l1.61.41a17.08,17.08,0,0,1,4.34,1.64A3.59,3.59,0,0,1,493.75,343.35Z"/><path class="cls-3" d="M510.6,340.07h-10c0,.2,0,.64.09,1.31a7.87,7.87,0,0,0,.45,2.06,3.85,3.85,0,0,0,1.32,1.78,4,4,0,0,0,2.5.72,6.11,6.11,0,0,0,2.08-.44,4.48,4.48,0,0,0,2.11-1.68l1.26.86a6.63,6.63,0,0,1-6.08,3.06,10.45,10.45,0,0,1-3.4-.53,7.62,7.62,0,0,1-2.6-1.5,6.38,6.38,0,0,1-1.64-2.25,6.89,6.89,0,0,1-.57-2.79,7.23,7.23,0,0,1,1-3.63,6.83,6.83,0,0,1,2.72-2.66,8.12,8.12,0,0,1,4-1,6.92,6.92,0,0,1,3.75.95,5.91,5.91,0,0,1,2.26,2.48A7.4,7.4,0,0,1,510.6,340.07Zm-4-1.49q0-3.7-2.92-3.7a2.52,2.52,0,0,0-2.16,1,4.72,4.72,0,0,0-.84,2.68Z"/><path class="cls-3" d="M521.52,347.21h-9.33v-1.5h.7a2.65,2.65,0,0,0,1.37-.26,1.07,1.07,0,0,0,.53-.73,7.6,7.6,0,0,0,.1-1.37V329.52c0-.77-.19-1.27-.55-1.49a4.84,4.84,0,0,0-2.15-.32v-1.49l6.88-1.4v18.53a7.79,7.79,0,0,0,.09,1.37,1.09,1.09,0,0,0,.52.73,2.78,2.78,0,0,0,1.37.26h.47Z"/><path class="cls-3" d="M539.49,340.52a6.76,6.76,0,0,1-4,6.35,9.19,9.19,0,0,1-4,.87,9.6,9.6,0,0,1-3.87-.79,7.11,7.11,0,0,1-3-2.42,6.61,6.61,0,0,1-1.16-4,6.31,6.31,0,0,1,2.4-5.35,9.13,9.13,0,0,1,5.71-1.82,8.75,8.75,0,0,1,4.25,1,6.67,6.67,0,0,1,2.7,2.61A7.16,7.16,0,0,1,539.49,340.52Zm-4.47-.09a9.36,9.36,0,0,0-.73-4.16,2.91,2.91,0,0,0-2.84-1.39,3.22,3.22,0,0,0-2.1.61,3.29,3.29,0,0,0-1.06,1.88,14.84,14.84,0,0,0-.3,3.3,10.4,10.4,0,0,0,.67,4c.44,1,1.41,1.54,2.9,1.54a2.9,2.9,0,0,0,2.25-.85,4.19,4.19,0,0,0,1-2.11A16.38,16.38,0,0,0,535,340.43Z"/><path class="cls-3" d="M555.51,336a1.94,1.94,0,0,1-.58,1.48,1.89,1.89,0,0,1-1.36.55,2,2,0,0,1-1.62-.91,4.26,4.26,0,0,0-.53-.59,1,1,0,0,0-.6-.17,2.15,2.15,0,0,0-2,1.37,6.13,6.13,0,0,0-.71,2.84v2.83a3.52,3.52,0,0,0,.35,1.86c.23.34.85.5,1.84.5h.86v1.5H541.12v-1.5H542c.91,0,1.47-.17,1.67-.52a3.81,3.81,0,0,0,.31-1.84v-4.74a3.93,3.93,0,0,0-.22-1.56,1.15,1.15,0,0,0-.79-.62,7.16,7.16,0,0,0-1.81-.16v-1.49l6.32-1.39a20.46,20.46,0,0,1,.46,3.52,6.91,6.91,0,0,1,1.19-1.76,6.32,6.32,0,0,1,1.65-1.28,4,4,0,0,1,1.88-.48,2.92,2.92,0,0,1,2.11.74A2.42,2.42,0,0,1,555.51,336Z"/><path class="cls-3" d="M570.85,343.35a3.55,3.55,0,0,1-.84,2.38,5.07,5.07,0,0,1-2.28,1.5,10.12,10.12,0,0,1-3.35.51,13.27,13.27,0,0,1-2.58-.25,8.64,8.64,0,0,1-2.27-.75l-.63.9h-1.27l-.16-4.21h1.36a3.91,3.91,0,0,0,1.64,1.95,6.58,6.58,0,0,0,3.71.87,10.61,10.61,0,0,0,1.33-.09,3.33,3.33,0,0,0,1.37-.49,1.38,1.38,0,0,0,.66-1.25,1.12,1.12,0,0,0-.67-1.07,14.8,14.8,0,0,0-2.52-.8c-1.5-.38-2.72-.74-3.67-1.08a6.64,6.64,0,0,1-2.42-1.47,3.26,3.26,0,0,1-1-2.46,3.46,3.46,0,0,1,1.76-3,8.56,8.56,0,0,1,4.62-1.11,10.94,10.94,0,0,1,2.85.29,10.31,10.31,0,0,1,1.8.63l.39-.83H570v3.77h-1.33a2.48,2.48,0,0,0-.81-1.22,4.28,4.28,0,0,0-1.68-.85,8.87,8.87,0,0,0-2.43-.3,10.85,10.85,0,0,0-2.26.24c-.75.16-1.12.55-1.12,1.15a.91.91,0,0,0,.21.62,2.07,2.07,0,0,0,.76.45,16.37,16.37,0,0,0,1.88.55l1.61.41a16.85,16.85,0,0,1,4.33,1.64A3.6,3.6,0,0,1,570.85,343.35Z"/><path class="cls-3" d="M598.23,343.78a4.13,4.13,0,0,1-.5,2.1,3.19,3.19,0,0,1-1.36,1.29,4.37,4.37,0,0,1-1.92.41,3.83,3.83,0,0,1-2.27-.64,2.51,2.51,0,0,1-1.09-1.53,8.72,8.72,0,0,1-5.45,2.17,4.61,4.61,0,0,1-2.87-.85,2.71,2.71,0,0,1-1.12-2.25,3.75,3.75,0,0,1,.6-2.08,5.56,5.56,0,0,1,1.76-1.67,14.6,14.6,0,0,1,2.77-1.29c1.07-.37,2.41-.76,4-1.17v-.93a2.69,2.69,0,0,0-.55-1.8,2.49,2.49,0,0,0-2-.66,2.56,2.56,0,0,0-1.8.52,2.69,2.69,0,0,0-.73,1.57,3,3,0,0,1-.48,1.23,1.75,1.75,0,0,1-1.45.47,1.92,1.92,0,0,1-1.2-.39,1.33,1.33,0,0,1-.52-1.15,3.21,3.21,0,0,1,1.64-2.63,9.08,9.08,0,0,1,5-1.11q3.57,0,4.9,1.2A4.07,4.07,0,0,1,595,337.8v5.12c0,.65,0,1.13,0,1.43a1.15,1.15,0,0,0,.27.69.87.87,0,0,0,.69.24.93.93,0,0,0,.74-.44,1.77,1.77,0,0,0,.31-1.06Zm-7.44.13v-4a9.51,9.51,0,0,0-3.92,1.91,2.77,2.77,0,0,0-.84,1.82,1.63,1.63,0,0,0,.46,1.2,1.74,1.74,0,0,0,1.28.46,3.2,3.2,0,0,0,1.57-.38A9.87,9.87,0,0,0,590.79,343.91Z"/><path class="cls-3" d="M610.06,344.32a6.51,6.51,0,0,1-2,2.63,4.72,4.72,0,0,1-2.74.79,4.28,4.28,0,0,1-2.82-.78,3.18,3.18,0,0,1-1.12-1.74,10.24,10.24,0,0,1-.21-2.17v-7.64h-2.45v-1.49a5.79,5.79,0,0,0,2.68-.58,4.74,4.74,0,0,0,1.79-1.58,5.09,5.09,0,0,0,.83-2.12h1.33v4.28h4.6v1.49h-4.6v7.74a8.09,8.09,0,0,0,.19,2,.85.85,0,0,0,.92.62,1.58,1.58,0,0,0,1.28-.61,8.58,8.58,0,0,0,1-1.51Z"/><path class="cls-3" d="M639.21,339.86l-.15,7.35H619.47v-1.5a3.94,3.94,0,0,0,2.61-.58,2.79,2.79,0,0,0,.58-2V329.3a4.53,4.53,0,0,0-.19-1.49,1.51,1.51,0,0,0-.9-.82,5.88,5.88,0,0,0-2.1-.29v-1.49h11.06v1.49a5.83,5.83,0,0,0-2.08.28,1.51,1.51,0,0,0-.93.8,4,4,0,0,0-.22,1.52V342a10.59,10.59,0,0,0,.15,2.14,1.41,1.41,0,0,0,.79,1,4.82,4.82,0,0,0,2.13.34,16.62,16.62,0,0,0,3.27-.29,5,5,0,0,0,2.59-1.51,6.24,6.24,0,0,0,1.49-3.75Z"/><path class="cls-3" d="M658.14,343.78a4.13,4.13,0,0,1-.5,2.1,3.19,3.19,0,0,1-1.36,1.29,4.43,4.43,0,0,1-1.92.41,3.8,3.8,0,0,1-2.27-.64,2.48,2.48,0,0,1-1.09-1.53,8.72,8.72,0,0,1-5.45,2.17,4.59,4.59,0,0,1-2.87-.85,2.69,2.69,0,0,1-1.12-2.25,3.75,3.75,0,0,1,.6-2.08,5.56,5.56,0,0,1,1.76-1.67,14,14,0,0,1,2.77-1.29c1.07-.37,2.4-.76,4-1.17v-.93a2.74,2.74,0,0,0-.54-1.8,2.49,2.49,0,0,0-2-.66,2.53,2.53,0,0,0-1.8.52,2.69,2.69,0,0,0-.74,1.57,2.85,2.85,0,0,1-.47,1.23,1.77,1.77,0,0,1-1.45.47,1.92,1.92,0,0,1-1.2-.39,1.33,1.33,0,0,1-.52-1.15,3.19,3.19,0,0,1,1.63-2.63,9.1,9.1,0,0,1,5-1.11q3.57,0,4.91,1.2a4.11,4.11,0,0,1,1.34,3.21v5.12a12.65,12.65,0,0,0,0,1.43,1.21,1.21,0,0,0,.26.69.9.9,0,0,0,.69.24.92.92,0,0,0,.74-.44,1.78,1.78,0,0,0,.32-1.06Zm-7.45.13v-4c-2.05.65-3.36,1.28-3.91,1.91a2.77,2.77,0,0,0-.84,1.82,1.62,1.62,0,0,0,.45,1.2,1.77,1.77,0,0,0,1.29.46,3.23,3.23,0,0,0,1.57-.38A10.38,10.38,0,0,0,650.69,343.91Z"/><path class="cls-3" d="M684.14,335.41a2.89,2.89,0,0,0-1.12.17,1.47,1.47,0,0,0-.66.59,15.2,15.2,0,0,0-.8,1.53l-4.78,10h-1.4L671,339l-4.31,8.74h-1.4l-4.68-10a7.21,7.21,0,0,0-1.12-1.9,2.27,2.27,0,0,0-1.53-.42v-1.49h8.34v1.49h-.46c-.81,0-1.21.27-1.21.81a2.57,2.57,0,0,0,.31,1.07l2.54,5.48,4.4-8.84H673l4.46,8.84,2.39-5.06a5.16,5.16,0,0,0,.5-1.49.61.61,0,0,0-.43-.67,6.09,6.09,0,0,0-1.47-.13v-1.49h5.71Z"/></g></g></svg>