<svg xmlns="http://www.w3.org/2000/svg" viewBox="0 0 913.2 368.3"><defs><style>.cls-1{fill:#fff;}.cls-2{fill:#030266;}.cls-3{fill:#ccad0e;}</style></defs><title>logo-6</title><g id="Layer_2" data-name="Layer 2"><g id="Layer_1-2" data-name="Layer 1"><path class="cls-1" d="M913,319c.06,1.08.13,1.84.15,2.6s0,1.77,0,3H0V319Z"/><path class="cls-1" d="M18.91,272.49c0,9.57-.07,18.12,0,26.66,0,3.41,1.66,5.55,5.46,5.39A3.22,3.22,0,0,1,27,305.72H1.54l-.09-.83a8,8,0,0,1,1.94-.55c3.37,0,4.4-2.13,4.51-5,.19-4.86.42-9.72.45-14.59.07-11.14,0-22.28,0-33.42,0-8.77,0-8.77-7.9-11.51H25.13l.15.37a13.74,13.74,0,0,1-2.17.71c-2.57.38-3.9,1.88-3.91,4.41-.05,7.53,0,15.06,0,22.69.2,0,.71.11.88-.08,6.66-7.25,13.41-14.43,19.85-21.87,2.5-2.9,2.18-3.18-.13-6.36H60.27l.17.53c-.47.23-.94.49-1.43.7-3.12,1.34-6.91,2-9.26,4.12C42,252.2,34.69,259.93,26.8,267.86c5.11,5.9,10,11.77,15.15,17.42,3.7,4.07,7.7,7.87,11.62,11.73,4.15,4.08,8.86,7.21,14.85,7.83-.15.6-.18,1-.26,1-10.52,1.06-20.66,1.32-28.17-8.34-6-7.67-12.49-14.91-18.77-22.35C20.67,274.52,20.1,273.87,18.91,272.49Z"/><path class="cls-1" d="M854.7,306H838.45c5.51-.88,5.26-5.3,5.84-9.19q3.32-22,6.63-44c.18-1.22.51-2.41.77-3.62l1.33-.38c6.81,14.25,13.63,28.5,20.88,43.66L894.25,249l1.11.05a27.3,27.3,0,0,1,1,3.6q3,20.52,5.87,41.06c.8,5.65.56,12.06,9,12.1H895c-1.55-12.54-3-24.46-4.49-36.38l-1-.17-17.17,36.59-1.32.34-17.37-35.81-.74-.06c-.5,4.09-1,8.19-1.52,12.28-.62,4.7-1.3,9.38-1.93,14.08C848.55,303.39,848.55,303.39,854.7,306Z"/><path class="cls-1" d="M580.94,249.36h17.82c-4.26,1.59-3,4.65-2.09,7.6q4.13,14.18,8.26,28.37c.42,1.43,1,2.81,1.84,5.23,5.25-14.31,10.14-27.64,15-41l1.44,0c5.39,13.14,10.77,26.28,16.57,40.43,1.13-3.88,2-6.76,2.83-9.65,2.22-7.75,4.37-15.52,6.68-23.24,1-3.43,1.78-6.52-3.11-7.64h14.92c-5.34,1.3-5.82,6-7.15,10.09-4.54,13.73-9,27.49-13.52,41.23-.54,1.67-1.27,3.28-1.91,4.91l-1.35.3c-5.42-13.2-10.85-26.4-16.61-40.42l-15.6,40-1.51-.12a34.34,34.34,0,0,1-1.78-3.79c-5.1-15.3-10.22-30.59-15.16-45.94C585.57,252.69,584.28,250.4,580.94,249.36Z"/><path class="cls-1" d="M207.15,249.53a4.69,4.69,0,0,1,1.27-.37c10,0,20-.09,30,.22,16.58.51,27.25,10.53,27.8,25.77.61,16.75-9.73,29.63-26.1,30.8-10.45.74-21-.44-31.81-1.11,4.78-.21,5.22-3.4,5.25-6.88q.14-21.52.27-43c0-2.57-1.33-4-3.87-4.43-.92-.14-1.86-.26-2.79-.39Zm49.23,30c.48-17.95-11.85-28.06-30-26.89-1.14.07-3.1,1.78-3.11,2.74-.17,13.81-.1,27.62,0,41.42,0,2.95,1.58,4.71,4.54,5.29,5.78,1.15,11.55,1.05,17-1.21C254.15,296.92,256.52,288.83,256.38,279.52Z"/><path class="cls-1" d="M178.25,249.26h19.38c-5.65.46-5.67,4.57-5.73,8.51-.21,14.1-.35,28.2-.56,42.3,0,2.11-.26,4.23-.48,7.59-15.59-13.5-28.28-28.28-42-43.07-.15,1.78-.33,2.84-.31,3.9.18,9.61.34,19.22.61,28.83.15,5.66.39,5.83,6.25,7.09a12.33,12.33,0,0,1,2.11,1.37h-20.4c7.08-.88,6.06-6.17,6.13-10.78q.38-21.54.71-43.06c0-.88.12-1.76.28-3.8a36.76,36.76,0,0,1,4.69,3.45q17.46,18.37,34.82,36.86c.75.79,1.58,1.5,3.12,2.95,0-2.4,0-3.87,0-5.34-.16-8.58-.34-17.17-.48-25.75C186.22,252.08,186.24,252.08,178.25,249.26Z"/><path class="cls-1" d="M304.45,248.88c17.84-.08,28.58,10.13,28.71,27.28C333.29,294,321,306.23,303,306.32c-16.28.09-28.17-12.34-28.18-29.46C274.8,260.73,287.28,249,304.45,248.88Zm-20.2,27.59c.95,3.7,1.66,8.71,3.51,13.24A19.59,19.59,0,0,0,309,302.15c7.8-1,12.31-6.54,13.89-16.94.06-.38.18-.75.21-1.13.62-8.73.21-17.26-5.7-24.41a18.93,18.93,0,0,0-18.87-6.94c-7.15,1.27-10.88,6.37-12.66,13C285,268.74,284.88,272,284.25,276.47Z"/><path class="cls-1" d="M336.36,249.25c.93-.09,1.85-.25,2.78-.26,6.91-.05,13.81,0,20.72-.11,10.19-.1,16.95,5.49,16.7,13.91a17.52,17.52,0,0,1-6.34,13.48c-2.87,2.37-3.31,4.2-.56,7.06a115.42,115.42,0,0,1,7.64,9.61c4.29,5.55,8.31,11.45,16.91,12.19-6.53,2.78-16,1.29-19.91-3.28a94.15,94.15,0,0,1-10.39-14.22c-2.8-4.88-6.42-6-12.18-4.63.28,6.18.16,12.58,1.12,18.81.25,1.64,3.83,2.77,5.68,4H337.6c1.75-1,3.92-1.63,4.82-3s.81-3.7.83-5.59c.08-13.84.06-27.67.14-41.5,0-3.22-1.43-4.72-4.56-4.87a17.75,17.75,0,0,1-2.45-.5Zm31.76,17.19c-.1-9.51-5.06-14.92-13.2-13.95a3.82,3.82,0,0,0-2.59,2.64c-.22,6.88-.17,13.77,0,20.66a3.39,3.39,0,0,0,1.58,2.56,9.38,9.38,0,0,0,13.24-5.91A41.29,41.29,0,0,0,368.12,266.44Z"/><path class="cls-1" d="M775.88,305.79c5.23-.09,5.58-3.94,5.62-7.64.14-14.34.12-28.69.14-43,0-2.6-1.35-4-4-4.24-1.07-.09-2.13-.34-3.19-.52,0-.34,0-.67,0-1A18.58,18.58,0,0,1,777,249c6.9,0,13.81-.09,20.72,0a27.27,27.27,0,0,1,5.34.48c10.23,2.11,14.83,11.59,9.9,20.85a35.45,35.45,0,0,1-6,7.43c-1.34,1.39-1.6,2.33-.36,3.87,4.65,5.78,8.86,12,13.93,17.34,2.88,3.05,7.11,4.83,10.35,6.94-5.9,2.44-15.31.24-19.94-5.55a94.28,94.28,0,0,1-9-12.88c-2.68-4.79-6.32-5.76-12-4.4.28,6.31.2,12.83,1.12,19.2.22,1.48,3.83,2.46,5.72,3.58Zm30.89-39.23c-.46-9.47-5.18-14.6-13.27-14.25-2.28.1-3.17.89-3.14,3.19.1,6.65,0,13.29.11,19.94a3.65,3.65,0,0,0,1.29,2.76c4.08,2.32,10.57.5,12.61-3.71C805.56,272,806,269.21,806.77,266.56Z"/><path class="cls-1" d="M714.89,272.93c0,9.12-.07,17.82,0,26.51,0,3.17,1.77,4.93,5.14,4.83a4,4,0,0,1,3.08,1.18h-26c0-.2,0-.6.12-.64,5.68-1.8,5.91-1.8,6-8,.24-16.26.16-32.53.4-48.8.09-5.52-3-7-8.25-6.59l.58-1.17h41c-.27,3.45-.58,7.37-.89,11.29l-.81.11a6.84,6.84,0,0,1-.68-1.8,4.73,4.73,0,0,0-4.71-4.71c-4.94-.3-9.91-.08-15.1-.08v23.43c6.7-.45,13.43,1.48,20.09-1.88l-1,12.74-.79.11a5.9,5.9,0,0,0-.79-2.11c-1.49-1.54-3-3.92-4.75-4.19C723.51,272.51,719.26,272.93,714.89,272.93Z"/><path class="cls-1" d="M530.77,292.7c-.6,3.93-1.07,7.88-1.91,11.76-.16.74-1.75,1.67-2.68,1.68-13,.11-25.91.08-39.2-.67,7.66-1.07,6.77-6.89,6.84-11.54.24-15.36.13-30.73.09-46.09,0-5.05-.34-5.29-8.47-8H512.5c-.61.42-.92.79-1.28.85-6.34,1.06-6.47,1.16-6.49,7.5,0,14.72-.09,29.44,0,44.16,0,7.16,1.74,8.7,8.89,8.94.77,0,1.54,0,2.31,0,9.67,0,10.17-.28,13.71-8.72Z"/><path class="cls-1" d="M101.32,248.75c1,1.94,1.7,3.09,2.19,4.33,5.63,14.41,11.2,28.84,16.87,43.22,1.72,4.36,3.76,8.54,9.75,8.35l-.31,1h-16.6a30.85,30.85,0,0,0-.58-5.09c-.74-2.58-1.8-5.06-2.72-7.58-2.71-7.42-.86-6.16-9-6.21-10-.07-10,0-13.37,9.48-.26.72-.52,1.44-.76,2.17-1.44,4.44-1.07,5.14,3.36,6.77H73.32c7-.39,7.85-6.25,9.73-11,5.39-13.68,10.62-27.42,16-41.13A44.9,44.9,0,0,1,101.32,248.75Zm5,34.47c-2.3-6.49-4.38-12.36-6.47-18.24l-.93.09-6.41,18.15Z"/><path class="cls-1" d="M564.62,249.54c1,2.3,2,4.57,2.94,6.9q7.58,19.26,15.1,38.56c1.88,4.79,3.47,9.9,10.5,9.65l-.52,1.11H576a40.15,40.15,0,0,0-.74-5.57c-.71-2.45-1.76-4.8-2.64-7.2-2.26-6.21-2.25-6.21-8.66-6.22-10.29,0-10.29,0-13.71,9.53-.13.36-.26.72-.4,1.08-2,5.53-2,5.54,3.56,8H536.11c6.24-.66,7.57-5.67,9.34-10.27q8.16-21.1,16.35-42.19c.45-1.15,1.09-2.22,1.65-3.33Zm-9.41,33.62H569L562.54,265l-.94.18C559.53,271,557.45,276.85,555.21,283.16Z"/><path class="cls-1" d="M427.09,249.51c1.17,2.75,2.42,5.46,3.51,8.24q7.22,18.39,14.36,36.82c3,7.72,3.13,7.87,10,11.2h-16.7c-.16-2.07,0-3.94-.5-5.6a83.87,83.87,0,0,0-4-10.77c-.53-1.16-2.15-2-3.47-2.54a10.05,10.05,0,0,0-3.8-.08c-3.42.18-8.53-.9-9.89.88-2.81,3.66-3.89,8.79-5.05,13.47-.28,1.12,1.91,2.86,2.86,4.16H398.61c6.4-.57,7.6-5.8,9.4-10.46q7.89-20.4,15.77-40.79c.58-1.51,1.37-2.95,2.06-4.42Zm4.38,33.63c-2.23-6.31-4.35-12.29-6.47-18.27l-.87.09-6.45,18.18Z"/><path class="cls-1" d="M766.22,305.57H744.7c6.11-.9,5.29-5.75,5.33-9.68.12-13.44,0-26.89-.06-40.33,0-2.78-.85-4.75-4-4.94a2.24,2.24,0,0,1-1.7-1.4h20.92c-5.92,2.62-6,2.62-6,9.18q-.06,18.44,0,36.88C759.14,303.09,759.16,303.09,766.22,305.57Z"/><path class="cls-1" d="M238.59,360.19H228.23v-1.5a7.29,7.29,0,0,0,1.91-.18.83.83,0,0,0,.6-.89,2.75,2.75,0,0,0-.19-1l-1-2.59h-7.14l-.53,1.43a5.57,5.57,0,0,0-.46,1.73,1.14,1.14,0,0,0,.76,1.23,5.22,5.22,0,0,0,1.76.26v1.5h-7.58v-1.5a3.16,3.16,0,0,0,1.54-.34,3.31,3.31,0,0,0,1.21-1.29,17,17,0,0,0,1.24-2.68l6.34-16.61h1.55l6.7,17.13c.48,1.21.84,2,1.07,2.46a2.49,2.49,0,0,0,.94,1,3.4,3.4,0,0,0,1.68.34Zm-9.66-7.74-3-7.67L223,352.45Z"/><path class="cls-1" d="M250.71,357.3a6.41,6.41,0,0,1-2,2.63,4.77,4.77,0,0,1-2.74.79,4.29,4.29,0,0,1-2.83-.78A3.24,3.24,0,0,1,242,358.2a10.24,10.24,0,0,1-.21-2.17v-7.64h-2.45V346.9a5.79,5.79,0,0,0,2.68-.58,4.59,4.59,0,0,0,1.79-1.58,5.25,5.25,0,0,0,.84-2.12H246v4.28h4.59v1.49H246v7.74a8.2,8.2,0,0,0,.18,2,.86.86,0,0,0,.92.62,1.57,1.57,0,0,0,1.28-.61,8.58,8.58,0,0,0,1-1.51Z"/><path class="cls-1" d="M262.84,357.3a6.41,6.41,0,0,1-2,2.63,4.75,4.75,0,0,1-2.74.79,4.24,4.24,0,0,1-2.82-.78,3.18,3.18,0,0,1-1.12-1.74,10.24,10.24,0,0,1-.21-2.17v-7.64h-2.45V346.9a5.74,5.74,0,0,0,2.67-.58,4.69,4.69,0,0,0,1.8-1.58,5.37,5.37,0,0,0,.83-2.12h1.33v4.28h4.59v1.49h-4.59v7.74a7.64,7.64,0,0,0,.19,2,.85.85,0,0,0,.92.62,1.59,1.59,0,0,0,1.28-.61,8.58,8.58,0,0,0,1-1.51Z"/><path class="cls-1" d="M280.49,353.5a6.76,6.76,0,0,1-4,6.35,9.19,9.19,0,0,1-4,.87,9.6,9.6,0,0,1-3.87-.79,7,7,0,0,1-3-2.42,6.61,6.61,0,0,1-1.16-4,6.31,6.31,0,0,1,2.4-5.35,9.13,9.13,0,0,1,5.71-1.82,8.75,8.75,0,0,1,4.25,1,6.67,6.67,0,0,1,2.7,2.61A7.16,7.16,0,0,1,280.49,353.5Zm-4.47-.09a9.36,9.36,0,0,0-.73-4.16,2.91,2.91,0,0,0-2.84-1.39,2.88,2.88,0,0,0-3.16,2.49,14.84,14.84,0,0,0-.3,3.3,10.22,10.22,0,0,0,.67,4c.44,1,1.41,1.54,2.9,1.54a2.89,2.89,0,0,0,2.25-.85,4.19,4.19,0,0,0,1-2.11A17.42,17.42,0,0,0,276,353.41Z"/><path class="cls-1" d="M296.5,348.93a1.94,1.94,0,0,1-.57,1.48,1.9,1.9,0,0,1-1.36.55,2,2,0,0,1-1.62-.91,4.26,4.26,0,0,0-.53-.59,1,1,0,0,0-.6-.17,2.15,2.15,0,0,0-2,1.37,6,6,0,0,0-.71,2.84v2.83a3.52,3.52,0,0,0,.35,1.86c.23.34.84.5,1.84.5h.86v1.5H282.12v-1.5H283c.91,0,1.46-.17,1.67-.51a3.89,3.89,0,0,0,.31-1.85v-4.74a4.16,4.16,0,0,0-.22-1.56,1.15,1.15,0,0,0-.79-.62,7.67,7.67,0,0,0-1.81-.16v-1.49l6.32-1.39a21.57,21.57,0,0,1,.46,3.52,6.91,6.91,0,0,1,1.19-1.76,6.32,6.32,0,0,1,1.65-1.28,4,4,0,0,1,1.88-.48,3,3,0,0,1,2.11.74A2.46,2.46,0,0,1,296.5,348.93Z"/><path class="cls-1" d="M316.75,360.19h-8.4v-1.5a2.78,2.78,0,0,0,1.37-.25,1.08,1.08,0,0,0,.51-.73,10,10,0,0,0,.09-1.61v-4.59a4.88,4.88,0,0,0-.4-2.18,1.66,1.66,0,0,0-1.65-.81,2.8,2.8,0,0,0-2.54,1.31,5.43,5.43,0,0,0-.84,3v3.63a3,3,0,0,0,.37,1.75,2,2,0,0,0,1.61.47v1.5H298.3v-1.5a4.93,4.93,0,0,0,1.56-.18,1.06,1.06,0,0,0,.67-.67,5.41,5.41,0,0,0,.16-1.51v-5.24a1.9,1.9,0,0,0-.44-1.49,3.54,3.54,0,0,0-1.95-.35v-1.49l6.31-1.39a11.08,11.08,0,0,1,.15,1.75c0,.14,0,.26,0,.36s0,.22,0,.35a10.7,10.7,0,0,1,2.13-1.77,5.11,5.11,0,0,1,2.76-.69,5.91,5.91,0,0,1,2.5.5,3.92,3.92,0,0,1,1.75,1.52,4.65,4.65,0,0,1,.63,2.47v5.47a3.4,3.4,0,0,0,.36,1.86c.25.34.87.5,1.88.5Z"/><path class="cls-1" d="M333.13,353.05h-10c0,.21,0,.64.08,1.31a7.9,7.9,0,0,0,.46,2.06A3.83,3.83,0,0,0,325,358.2a4,4,0,0,0,2.51.72,6.21,6.21,0,0,0,2.08-.44,4.41,4.41,0,0,0,2.1-1.68l1.27.86a6.64,6.64,0,0,1-6.08,3.06,10.41,10.41,0,0,1-3.4-.53,7.77,7.77,0,0,1-2.61-1.5,6.26,6.26,0,0,1-1.63-2.25,6.89,6.89,0,0,1-.57-2.79,7.13,7.13,0,0,1,.95-3.63,6.87,6.87,0,0,1,2.71-2.66,8.14,8.14,0,0,1,4-1,7,7,0,0,1,3.76.95,5.87,5.87,0,0,1,2.26,2.49A7.32,7.32,0,0,1,333.13,353.05Zm-4-1.49q0-3.71-2.92-3.7a2.55,2.55,0,0,0-2.17,1,4.79,4.79,0,0,0-.83,2.68Z"/><path class="cls-1" d="M350.93,348.39a2.73,2.73,0,0,0-1.09.36,2.46,2.46,0,0,0-.71.8c-.21.37-.58,1.1-1.12,2.2l-4.76,9.86c-1.06,2.18-1.78,3.62-2.16,4.34a6.13,6.13,0,0,1-1.31,1.72,2.66,2.66,0,0,1-1.81.63,1.93,1.93,0,0,1-1.3-.46,1.41,1.41,0,0,1-.55-1.15,1.57,1.57,0,0,1,.67-1.43,6.44,6.44,0,0,1,1.74-.76,3.85,3.85,0,0,0,2.21-1.54,13,13,0,0,0,1.31-2.45l-6.18-10.88a2.81,2.81,0,0,0-.79-1,2,2,0,0,0-1-.22V346.9H342v1.49h-.51c-.74,0-1.12.18-1.12.54a2.9,2.9,0,0,0,.46,1.12l3.42,6,2.53-5.15a4.36,4.36,0,0,0,.54-1.5.83.83,0,0,0-.48-.76,2.28,2.28,0,0,0-1.13-.27V346.9h5.26Z"/><path class="cls-1" d="M366.16,356.33a3.55,3.55,0,0,1-.84,2.38,5.12,5.12,0,0,1-2.28,1.5,10.12,10.12,0,0,1-3.35.51,13.27,13.27,0,0,1-2.58-.25,8.64,8.64,0,0,1-2.27-.75l-.64.9h-1.26l-.16-4.21h1.36a3.91,3.91,0,0,0,1.64,1.95,6.58,6.58,0,0,0,3.71.87,10.61,10.61,0,0,0,1.33-.09,3.38,3.38,0,0,0,1.37-.49,1.37,1.37,0,0,0,.66-1.25,1.14,1.14,0,0,0-.67-1.07,15.66,15.66,0,0,0-2.53-.8q-2.23-.57-3.66-1.08a6.64,6.64,0,0,1-2.42-1.47,3.26,3.26,0,0,1-1-2.46,3.43,3.43,0,0,1,1.76-3,8.47,8.47,0,0,1,4.62-1.12,10.94,10.94,0,0,1,2.85.29,10.61,10.61,0,0,1,1.8.63l.39-.83h1.3v3.77H364a2.48,2.48,0,0,0-.81-1.22,4.28,4.28,0,0,0-1.68-.85,8.87,8.87,0,0,0-2.43-.3,10.85,10.85,0,0,0-2.26.24c-.75.16-1.13.55-1.13,1.15a.92.92,0,0,0,.22.62,2.07,2.07,0,0,0,.76.45,15.28,15.28,0,0,0,1.88.56l1.6.4a16.93,16.93,0,0,1,4.34,1.64A3.6,3.6,0,0,1,366.16,356.33Z"/><path class="cls-1" d="M399.53,355.24a7.86,7.86,0,0,1-.59,2.5,5,5,0,0,1-1.51,2,3.93,3.93,0,0,1-2.56.82,4.8,4.8,0,0,1-1.5-.24,6,6,0,0,1-1.6-.87,19.79,19.79,0,0,1-2.12-1.89,11.79,11.79,0,0,1-3.3,2.29,7.85,7.85,0,0,1-3.21.74,6.07,6.07,0,0,1-3.15-.82,5.82,5.82,0,0,1-2.17-2.18,5.72,5.72,0,0,1-.76-2.88,7.21,7.21,0,0,1,.3-2,7.07,7.07,0,0,1,1.43-2.45,10.66,10.66,0,0,1,3.28-2.56,17.72,17.72,0,0,1-1.25-2.53,6.42,6.42,0,0,1-.44-2.38,5,5,0,0,1,.48-2.23,4.45,4.45,0,0,1,1.2-1.59,5.43,5.43,0,0,1,1.68-.94,6,6,0,0,1,1.9-.32,4.78,4.78,0,0,1,2.46.62,4.38,4.38,0,0,1,1.6,1.6,4.16,4.16,0,0,1,.55,2,4.63,4.63,0,0,1-1,2.76,8.29,8.29,0,0,1-2.93,2.38l5,6.55a20.53,20.53,0,0,0,1.6-2.28,4.38,4.38,0,0,0,.69-2.24,1.85,1.85,0,0,0-.32-.89c-.21-.36-.67-.54-1.37-.54v-1.49h6.67v1.49a4.21,4.21,0,0,0-1.44.55,4,4,0,0,0-1,.92c-.29.37-.77,1.09-1.44,2.15l-.7,1.13a17.25,17.25,0,0,1-1.76,2.39,10.69,10.69,0,0,0,1.81,2.05,3.05,3.05,0,0,0,2,.92,1.63,1.63,0,0,0,.84-.24,2,2,0,0,0,.72-.84,5,5,0,0,0,.42-1.55Zm-10.84,1.23L383,349.06a4.22,4.22,0,0,0-2.43,3.62,5,5,0,0,0,.65,2.44,5.83,5.83,0,0,0,1.73,2,3.9,3.9,0,0,0,2.34.79,4,4,0,0,0,1.81-.41A12.62,12.62,0,0,0,388.69,356.47ZM388,342a3.11,3.11,0,0,0-.26-1.25,2.13,2.13,0,0,0-.77-.94,2,2,0,0,0-1.23-.37,2,2,0,0,0-1.61.66,2.19,2.19,0,0,0-.58,1.47,7.83,7.83,0,0,0,1.82,4.38,11.81,11.81,0,0,0,1.9-1.75A3.3,3.3,0,0,0,388,342Z"/><path class="cls-1" d="M431.24,360h-1.53a7.35,7.35,0,0,0-1.11-2.5,13.06,13.06,0,0,1-2.83,2.21,8.61,8.61,0,0,1-4.3.92,10.94,10.94,0,0,1-5.5-1.44,10.8,10.8,0,0,1-4.05-4,11.34,11.34,0,0,1-1.51-5.83,11.9,11.9,0,0,1,.82-4.4,11.16,11.16,0,0,1,2.34-3.68,11,11,0,0,1,3.61-2.5,11.41,11.41,0,0,1,4.6-.91,9.27,9.27,0,0,1,6.82,2.69,10.29,10.29,0,0,0,.69-2h1.46l.26,8.09h-1.56a9.91,9.91,0,0,0-1.52-3.67,7.9,7.9,0,0,0-2.62-2.45,6.36,6.36,0,0,0-3.17-.85,5.74,5.74,0,0,0-3.33,1,6.69,6.69,0,0,0-2.31,3.09,14.07,14.07,0,0,0-.83,5.17,15.65,15.65,0,0,0,.69,5,7.88,7.88,0,0,0,1.73,3,5.84,5.84,0,0,0,2.07,1.39,6,6,0,0,0,1.95.36,6.26,6.26,0,0,0,3.59-1.07,8.88,8.88,0,0,0,2.62-2.7,10.17,10.17,0,0,0,1.36-3.24h1.56Z"/><path class="cls-1" d="M450.69,353.5a6.75,6.75,0,0,1-4,6.35,9.15,9.15,0,0,1-4,.87,9.52,9.52,0,0,1-3.86-.79,7.07,7.07,0,0,1-3-2.42,6.68,6.68,0,0,1-1.16-4,6.31,6.31,0,0,1,2.4-5.35,9.13,9.13,0,0,1,5.71-1.82,8.75,8.75,0,0,1,4.25,1,6.67,6.67,0,0,1,2.7,2.61A7.17,7.17,0,0,1,450.69,353.5Zm-4.48-.09a9.22,9.22,0,0,0-.73-4.16,2.9,2.9,0,0,0-2.84-1.39,3.22,3.22,0,0,0-2.1.61,3.28,3.28,0,0,0-1.05,1.88,14.84,14.84,0,0,0-.3,3.3,10.42,10.42,0,0,0,.66,4c.45,1,1.41,1.54,2.91,1.54a2.85,2.85,0,0,0,2.24-.85,4,4,0,0,0,1-2.11A16.38,16.38,0,0,0,446.21,353.41Z"/><path class="cls-1" d="M471.13,360.09l-1.64.1c-.78.05-1.65.12-2.62.22a22.37,22.37,0,0,0-2.33.31v-2.37a6.42,6.42,0,0,1-5,2.4,4.66,4.66,0,0,1-3.15-.9,3.8,3.8,0,0,1-1.26-2,10.3,10.3,0,0,1-.25-2.34v-4.79a6.06,6.06,0,0,0-.11-1.4,1.05,1.05,0,0,0-.6-.68,3.89,3.89,0,0,0-1.61-.24V346.9h6.51v8.94c0,1.84.71,2.76,2.12,2.76a2.76,2.76,0,0,0,2.06-.87,8.14,8.14,0,0,0,1.3-1.66v-5.36a6,6,0,0,0-.12-1.44,1,1,0,0,0-.63-.66,4.65,4.65,0,0,0-1.67-.22V346.9h6.61v9.77a3.49,3.49,0,0,0,.14,1.13,1.1,1.1,0,0,0,.67.58,4.92,4.92,0,0,0,1.59.22Z"/><path class="cls-1" d="M490.94,360.19h-8.41v-1.5a2.72,2.72,0,0,0,1.37-.25,1,1,0,0,0,.51-.73,8.73,8.73,0,0,0,.1-1.61v-4.59a5,5,0,0,0-.4-2.18,1.68,1.68,0,0,0-1.66-.81,2.82,2.82,0,0,0-2.54,1.31,5.51,5.51,0,0,0-.83,3v3.63a2.93,2.93,0,0,0,.37,1.75c.25.32.78.47,1.61.47v1.5h-8.57v-1.5a5,5,0,0,0,1.56-.18,1,1,0,0,0,.66-.67,5,5,0,0,0,.16-1.51v-5.24a1.9,1.9,0,0,0-.43-1.49,3.54,3.54,0,0,0-1.95-.35v-1.49l6.31-1.39a11.08,11.08,0,0,1,.15,1.75c0,.14,0,.26,0,.36s0,.22,0,.35a10.43,10.43,0,0,1,2.13-1.77,5.08,5.08,0,0,1,2.75-.69,6,6,0,0,1,2.51.5,3.84,3.84,0,0,1,1.74,1.52,4.66,4.66,0,0,1,.64,2.47v5.47a3.4,3.4,0,0,0,.36,1.86c.24.34.87.5,1.88.5Z"/><path class="cls-1" d="M506.38,356.33a3.55,3.55,0,0,1-.84,2.38,5.16,5.16,0,0,1-2.29,1.5,10,10,0,0,1-3.35.51,13.24,13.24,0,0,1-2.57-.25,8.72,8.72,0,0,1-2.28-.75l-.63.9h-1.26l-.17-4.21h1.37a3.91,3.91,0,0,0,1.64,1.95,6.58,6.58,0,0,0,3.71.87,10.73,10.73,0,0,0,1.33-.09,3.38,3.38,0,0,0,1.37-.49,1.37,1.37,0,0,0,.66-1.25,1.13,1.13,0,0,0-.68-1.07,15.11,15.11,0,0,0-2.52-.8q-2.24-.57-3.66-1.08a6.56,6.56,0,0,1-2.42-1.47,3.26,3.26,0,0,1-1-2.46,3.43,3.43,0,0,1,1.76-3,8.45,8.45,0,0,1,4.62-1.12,10.17,10.17,0,0,1,4.65.92l.39-.83h1.3v3.77h-1.33a2.48,2.48,0,0,0-.81-1.22,4.43,4.43,0,0,0-1.68-.85,8.87,8.87,0,0,0-2.43-.3,10.85,10.85,0,0,0-2.26.24c-.75.16-1.13.55-1.13,1.15a.87.87,0,0,0,.22.62,2.07,2.07,0,0,0,.76.45,15.28,15.28,0,0,0,1.88.56l1.6.4a16.93,16.93,0,0,1,4.34,1.64A3.6,3.6,0,0,1,506.38,356.33Z"/><path class="cls-1" d="M523.23,353.05h-10c0,.21,0,.64.08,1.31a7.52,7.52,0,0,0,.46,2.06,3.83,3.83,0,0,0,1.31,1.78,4,4,0,0,0,2.51.72,6.21,6.21,0,0,0,2.08-.44,4.41,4.41,0,0,0,2.1-1.68l1.27.86a6.64,6.64,0,0,1-6.08,3.06,10.41,10.41,0,0,1-3.4-.53,7.77,7.77,0,0,1-2.61-1.5,6.26,6.26,0,0,1-1.63-2.25,6.89,6.89,0,0,1-.57-2.79,7.13,7.13,0,0,1,1-3.63,6.87,6.87,0,0,1,2.71-2.66,8.14,8.14,0,0,1,4-1,7,7,0,0,1,3.76.95,5.94,5.94,0,0,1,2.26,2.49A7.32,7.32,0,0,1,523.23,353.05Zm-4-1.49c0-2.47-1-3.7-2.92-3.7a2.54,2.54,0,0,0-2.17,1,4.79,4.79,0,0,0-.83,2.68Z"/><path class="cls-1" d="M534.15,360.19h-9.33v-1.5h.7a2.67,2.67,0,0,0,1.37-.26,1.07,1.07,0,0,0,.53-.72,8,8,0,0,0,.09-1.38V342.51q0-1.17-.54-1.5a4.84,4.84,0,0,0-2.15-.32V339.2l6.88-1.4v18.53a7.79,7.79,0,0,0,.09,1.37,1.07,1.07,0,0,0,.52.73,2.76,2.76,0,0,0,1.37.26h.47Z"/><path class="cls-1" d="M552.12,353.5a6.76,6.76,0,0,1-4,6.35,9.19,9.19,0,0,1-4,.87,9.54,9.54,0,0,1-3.87-.79,7.13,7.13,0,0,1-3-2.42,6.68,6.68,0,0,1-1.16-4,6.31,6.31,0,0,1,2.4-5.35,9.15,9.15,0,0,1,5.71-1.82,8.72,8.72,0,0,1,4.25,1,6.67,6.67,0,0,1,2.7,2.61A7.07,7.07,0,0,1,552.12,353.5Zm-4.48-.09a9.22,9.22,0,0,0-.73-4.16,2.88,2.88,0,0,0-2.83-1.39,2.86,2.86,0,0,0-3.16,2.49,14.84,14.84,0,0,0-.3,3.3,10.42,10.42,0,0,0,.66,4,2.83,2.83,0,0,0,2.91,1.54,2.89,2.89,0,0,0,2.25-.85,4.19,4.19,0,0,0,1-2.11A17.49,17.49,0,0,0,547.64,353.41Z"/><path class="cls-1" d="M568.13,348.93a1.94,1.94,0,0,1-.57,1.48,1.9,1.9,0,0,1-1.36.55,2,2,0,0,1-1.62-.91,4.93,4.93,0,0,0-.54-.59,1,1,0,0,0-.6-.17,2.16,2.16,0,0,0-2,1.37,6.12,6.12,0,0,0-.7,2.84v2.83a3.54,3.54,0,0,0,.34,1.86c.24.34.85.5,1.85.5h.86v1.5H553.74v-1.5h.85c.91,0,1.46-.17,1.67-.51a4,4,0,0,0,.31-1.85v-4.74a4.16,4.16,0,0,0-.22-1.56,1.15,1.15,0,0,0-.79-.62,7.71,7.71,0,0,0-1.82-.16v-1.49l6.33-1.39a22,22,0,0,1,.45,3.52,7,7,0,0,1,1.2-1.76,6.32,6.32,0,0,1,1.65-1.28,4,4,0,0,1,1.87-.48,3,3,0,0,1,2.11.74A2.44,2.44,0,0,1,568.13,348.93Z"/><path class="cls-1" d="M583.48,356.33a3.55,3.55,0,0,1-.84,2.38,5.12,5.12,0,0,1-2.28,1.5,10.12,10.12,0,0,1-3.35.51,13.27,13.27,0,0,1-2.58-.25,8.52,8.52,0,0,1-2.27-.75l-.64.9h-1.26l-.16-4.21h1.36a3.91,3.91,0,0,0,1.64,1.95,6.58,6.58,0,0,0,3.71.87,10.73,10.73,0,0,0,1.33-.09,3.38,3.38,0,0,0,1.37-.49,1.37,1.37,0,0,0,.66-1.25,1.14,1.14,0,0,0-.67-1.07,16,16,0,0,0-2.53-.8q-2.24-.57-3.66-1.08a6.64,6.64,0,0,1-2.42-1.47,3.26,3.26,0,0,1-1-2.46,3.43,3.43,0,0,1,1.76-3,8.45,8.45,0,0,1,4.62-1.12,11,11,0,0,1,2.85.29,10.61,10.61,0,0,1,1.8.63l.39-.83h1.3v3.77h-1.33a2.48,2.48,0,0,0-.81-1.22,4.35,4.35,0,0,0-1.68-.85,8.87,8.87,0,0,0-2.43-.3,10.78,10.78,0,0,0-2.26.24c-.75.16-1.13.55-1.13,1.15a.87.87,0,0,0,.22.62,2.11,2.11,0,0,0,.75.45,16.19,16.19,0,0,0,1.89.56l1.6.4a17.08,17.08,0,0,1,4.34,1.64A3.6,3.6,0,0,1,583.48,356.33Z"/><path class="cls-1" d="M610.86,356.76a4.13,4.13,0,0,1-.5,2.1,3.19,3.19,0,0,1-1.36,1.29,4.4,4.4,0,0,1-1.92.41,3.8,3.8,0,0,1-2.27-.64,2.48,2.48,0,0,1-1.09-1.53,8.67,8.67,0,0,1-5.45,2.17,4.59,4.59,0,0,1-2.87-.85,2.69,2.69,0,0,1-1.12-2.25,3.75,3.75,0,0,1,.6-2.08,5.67,5.67,0,0,1,1.76-1.67,13.75,13.75,0,0,1,2.77-1.28c1.07-.38,2.4-.77,4-1.18v-.93a2.74,2.74,0,0,0-.54-1.8,2.49,2.49,0,0,0-2-.66,2.53,2.53,0,0,0-1.8.52,2.63,2.63,0,0,0-.73,1.57,3,3,0,0,1-.48,1.23,1.77,1.77,0,0,1-1.45.47,1.92,1.92,0,0,1-1.2-.39,1.32,1.32,0,0,1-.52-1.15,3.16,3.16,0,0,1,1.64-2.62,9,9,0,0,1,5-1.12q3.57,0,4.91,1.2a4.11,4.11,0,0,1,1.34,3.21v5.12a12.65,12.65,0,0,0,0,1.43,1.12,1.12,0,0,0,.27.69.87.87,0,0,0,.69.24.9.9,0,0,0,.73-.44,1.75,1.75,0,0,0,.32-1.06Zm-7.45.13v-4a9.58,9.58,0,0,0-3.91,1.91,2.77,2.77,0,0,0-.84,1.82,1.62,1.62,0,0,0,.45,1.2,1.78,1.78,0,0,0,1.29.46,3.2,3.2,0,0,0,1.57-.38A8.47,8.47,0,0,0,603.41,356.89Z"/><path class="cls-1" d="M622.68,357.3a6.41,6.41,0,0,1-2,2.63,4.75,4.75,0,0,1-2.74.79,4.24,4.24,0,0,1-2.82-.78A3.18,3.18,0,0,1,614,358.2a10.24,10.24,0,0,1-.21-2.17v-7.64H611.3V346.9a5.74,5.74,0,0,0,2.67-.58,4.69,4.69,0,0,0,1.8-1.58,5.37,5.37,0,0,0,.83-2.12h1.33v4.28h4.59v1.49h-4.59v7.74a7.64,7.64,0,0,0,.19,2,.85.85,0,0,0,.91.62,1.6,1.6,0,0,0,1.29-.61,9.19,9.19,0,0,0,1-1.51Z"/><path class="cls-1" d="M651.83,352.84l-.14,7.35h-19.6v-1.5a3.9,3.9,0,0,0,2.61-.58,2.79,2.79,0,0,0,.59-2V342.28a4.49,4.49,0,0,0-.2-1.49,1.51,1.51,0,0,0-.9-.82,5.88,5.88,0,0,0-2.1-.29v-1.49h11.07v1.49a5.89,5.89,0,0,0-2.09.28,1.49,1.49,0,0,0-.92.8,4,4,0,0,0-.22,1.52v12.65a11.63,11.63,0,0,0,.14,2.14,1.42,1.42,0,0,0,.8,1,4.8,4.8,0,0,0,2.12.34,16.48,16.48,0,0,0,3.27-.29,5,5,0,0,0,2.6-1.51,6.24,6.24,0,0,0,1.48-3.75Z"/><path class="cls-1" d="M670.77,356.76a4,4,0,0,1-.51,2.1,3.16,3.16,0,0,1-1.35,1.29,4.43,4.43,0,0,1-1.92.41,3.86,3.86,0,0,1-2.28-.64,2.5,2.5,0,0,1-1.08-1.53,8.71,8.71,0,0,1-5.45,2.17,4.58,4.58,0,0,1-2.87-.85,2.69,2.69,0,0,1-1.12-2.25,3.75,3.75,0,0,1,.6-2.08,5.56,5.56,0,0,1,1.76-1.67,13.65,13.65,0,0,1,2.76-1.28c1.07-.38,2.41-.77,4-1.18v-.93a2.74,2.74,0,0,0-.54-1.8,2.51,2.51,0,0,0-2-.66,2.56,2.56,0,0,0-1.8.52,2.69,2.69,0,0,0-.73,1.57,2.74,2.74,0,0,1-.48,1.23,1.74,1.74,0,0,1-1.45.47,2,2,0,0,1-1.2-.39,1.35,1.35,0,0,1-.52-1.15,3.18,3.18,0,0,1,1.64-2.62,9,9,0,0,1,5-1.12c2.38,0,4,.4,4.91,1.2a4.1,4.1,0,0,1,1.33,3.21v5.12c0,.65,0,1.13,0,1.43a1.25,1.25,0,0,0,.27.69.9.9,0,0,0,.69.24.92.92,0,0,0,.74-.44,1.75,1.75,0,0,0,.31-1.06Zm-7.45.13v-4a9.64,9.64,0,0,0-3.92,1.91,2.8,2.8,0,0,0-.83,1.82,1.62,1.62,0,0,0,.45,1.2,1.74,1.74,0,0,0,1.28.46,3.17,3.17,0,0,0,1.57-.38A8.52,8.52,0,0,0,663.32,356.89Z"/><path class="cls-1" d="M696.77,348.39a2.89,2.89,0,0,0-1.12.17,1.47,1.47,0,0,0-.66.59,12.62,12.62,0,0,0-.8,1.53l-4.79,10H688L683.58,352l-4.31,8.74h-1.4l-4.69-10a6.94,6.94,0,0,0-1.12-1.9,2.24,2.24,0,0,0-1.52-.42V346.9h8.33v1.49h-.45c-.81,0-1.22.27-1.22.81a2.73,2.73,0,0,0,.31,1.07l2.55,5.48,4.39-8.84h1.16l4.46,8.84,2.38-5.06a4.85,4.85,0,0,0,.5-1.49.62.62,0,0,0-.42-.67,6.09,6.09,0,0,0-1.47-.13V346.9h5.71Z"/><path class="cls-1" d="M561.9,119.4c0-21.58,0-43.16,0-64.74a96.89,96.89,0,0,0-1.17-15c-1.62-10.13-7.45-16.22-17.3-18.62a37.31,37.31,0,0,0-6.5-1.26c-2.62-.15-1.54-1.93-1.72-3.16-.25-1.77,1.05-1.36,2-1.35,27.41.36,54.83.35,82.25.3,16,0,31.93-.12,47.87-.86a114.11,114.11,0,0,0,15.86-1.61c.83-.15,1.54-.41,1.34,1.07-1.94,14.57-1.66,29.19-.74,43.81,0,.52,0,1,.07,1.55.07.85.14,1.65-1.09,1.69-.93,0-1.83.4-2.34-.9-.93-2.4-2-4.73-3.07-7.08-5.09-11.5-13.83-18.4-26.22-20.36a138.19,138.19,0,0,0-43.25.11c-9,1.43-12.84,6.1-14,15.18a95.8,95.8,0,0,0-.64,11.72c-.05,13.16,0,26.31-.06,39.47,0,1.8.44,2.35,2.31,2.32,14.63-.21,29.26.29,43.89-.43A51.78,51.78,0,0,0,650.5,99.6c6.7-1.83,10.36-6.27,11.14-13,.25-2.19,1.52-1.63,2.75-1.75,1.64-.17,1.29,1,1.27,1.87-.39,16-.42,31.92,0,47.88,0,.82.36,2-1.16,1.69-1-.2-2.51.85-2.83-1.35-1.08-7.41-5.87-11.23-12.83-12.81-6.39-1.45-12.89-1.64-19.39-1.7-11.45-.11-22.91,0-34.36-.09-1.66,0-1.92.57-1.92,2,.05,18,0,36.07.14,54.1a6.07,6.07,0,0,1-1.95,4.77,45.82,45.82,0,0,1-28,13.82c-1.25.14-1.63,0-1.63-1.36q.06-37.14,0-74.28Z"/><path class="cls-1" d="M562.83,208.07a13.85,13.85,0,0,1-9.45-3.49,14.08,14.08,0,0,1-4.64-10.92q0-30.54,0-61.08V106.4h.13v-4.27c0-15.55,0-31.63,0-47.43a83.81,83.81,0,0,0-1-13c-.77-4.82-2.67-6.85-7.53-8l-1-.25a24.61,24.61,0,0,0-3.15-.66,14.85,14.85,0,0,1-10.67-5.09A14.38,14.38,0,0,1,522.17,17a13.91,13.91,0,0,1,3.69-10.33,14.08,14.08,0,0,1,11.73-4.35c27.07.36,54.15.35,81.83.31,15.15,0,31.28-.11,47.29-.86A103.61,103.61,0,0,0,680.77.33a13.71,13.71,0,0,1,12.48,3.29,14,14,0,0,1,4.15,12.26c-2,14.72-1.38,29.8-.66,41.28,0,.36,0,.71,0,1.05v.3a14.2,14.2,0,0,1-3.45,11,14,14,0,0,1-9.91,4.65,14.26,14.26,0,0,1-15.14-9.15c-.57-1.47-1.27-3-2-4.66-.29-.63-.57-1.26-.85-1.89-3.35-7.58-8.4-11.52-16.36-12.78a125.36,125.36,0,0,0-39.19.11,8.58,8.58,0,0,0-2.32.62,10.69,10.69,0,0,0-.81,3.37,80.64,80.64,0,0,0-.54,10.12q0,9,0,18.09V88.62l5.51,0c9.32,0,18.13.06,27-.38a38.73,38.73,0,0,0,8.35-1.2,3.81,3.81,0,0,0,1.31-.54,4.81,4.81,0,0,0,.33-1.42c.76-6.61,5.65-13.24,14.87-13.24h0a13.89,13.89,0,0,1,15,15.36c-.39,16.06-.39,31.82,0,46.83a13.73,13.73,0,0,1-14.47,15.25,14.19,14.19,0,0,1-15.38-12.51,2.68,2.68,0,0,0-.27-1,6.21,6.21,0,0,0-2.58-1c-5.15-1.17-10.8-1.31-16.62-1.37-6-.06-12.17,0-18.11,0h-5c0,2.68,0,5.37,0,8,0,11.46,0,23.3.1,34.93a19,19,0,0,1-5.71,14A58.73,58.73,0,0,1,564.86,208,18.07,18.07,0,0,1,562.83,208.07Zm11.94-75.67v.18q0,22.65,0,45.29a36.11,36.11,0,0,0,5.53-4.06c-.08-10.83-.08-21.76-.09-32.37q0-9.52,0-19a14.7,14.7,0,0,1,4.22-10.87l.61-.58-.51-.48a15,15,0,0,1-4.32-11.17c0-7.09,0-14.17,0-21.25q0-9.11,0-18.2A106.33,106.33,0,0,1,581,46.53q1.44-11.33,7.61-17.94-8.8,0-17.58,0a40.11,40.11,0,0,1,2.52,9.06,111,111,0,0,1,1.34,17c0,15.84,0,31.95,0,47.52V132.4Zm87.37,16.66Zm0,0h0Zm16.57-14.82v0Zm-4.13-1.18v0Zm-68.36-10.74Zm0-22.89h0Zm77-25.21h0Zm-20.12-2.3h0Zm29.42-16.34h0ZM522.31,18.45v0ZM537.64,6.8h0Z"/><path class="cls-1" d="M397.25,219.39q-20.29,0-40.57,0c-.83,0-2.27.72-2.2-1.18,0-1.25-.4-2.56,1.75-2.74a50.43,50.43,0,0,0,7.36-1.46c10.45-2.52,15.93-9.39,17.45-19.82a139.13,139.13,0,0,0,1-19.46c0-9.16,0-18.33,0-27.49a4.63,4.63,0,0,0-1.44-3.5c-5.48-5.8-11-11.6-16.3-17.52-1.32-1.46-1.94-1.24-3.2,0-16.22,15.65-31.67,32.05-46.89,48.66Q294.87,196,275.62,217.27a5,5,0,0,1-4.35,1.88c-14.34-.53-28.67-.44-43,.45-2,.13-3-.9-3-2.95,0-.86.56-.89,1.14-1,16.39-3.92,28.56-14.28,39.71-26.13q38.79-41.25,77.51-82.56c.75-.81,1.34-1.33.25-2.47C325.06,84.76,307,64.31,287.44,45.31c-8.06-7.83-16.61-15.09-26.81-20.11a44.51,44.51,0,0,0-20.85-5.07c-2.9.07-1.65-1.87-1.89-3.12-.3-1.51.44-1.8,1.85-1.77,26.16.55,52.32.46,78.48,0,1.49,0,2.11.4,1.8,1.83-.25,1.15,1.09,3.22-1.69,3.05a20.92,20.92,0,0,0-5.95.47c-4.8,1.09-6.88,4.43-5.7,9.24a29.26,29.26,0,0,0,4.8,9.64c6.57,9.43,14.52,17.68,22.37,26,25.82,27.43,51.36,55.12,77.47,82.28a7.24,7.24,0,0,1,2.13,5.46c0,12-.46,23.95.36,35.91a50.54,50.54,0,0,0,1.52,9.38c2.33,8.91,8.59,13.58,17.12,15.75a31,31,0,0,0,5.85,1.11c2.31.13,1.73,1.64,1.78,2.93.08,1.79-1.29,1-2,1q-20.4.06-40.79,0Z"/><path class="cls-1" d="M228,232.61a15.58,15.58,0,0,1-10.9-4.23,15.85,15.85,0,0,1-4.77-11.94A13.91,13.91,0,0,1,223.43,203c13.82-3.31,24.14-12.71,33.24-22.39q23.76-25.25,47.46-50.54,11.47-12.22,22.94-24.44c-4-4.27-8-8.53-11.87-12.72-11.89-12.77-24.19-26-36.81-38.25-6.42-6.22-14.22-13.2-23.5-17.77-5.34-2.62-10.18-3.85-14.8-3.73a14.8,14.8,0,0,1-11.54-4.63,14.17,14.17,0,0,1-3.68-10.88,14.17,14.17,0,0,1,3.24-10.34,14.44,14.44,0,0,1,11.9-5c24,.5,49.51.5,78,0a14.67,14.67,0,0,1,11.93,5.2,14.13,14.13,0,0,1,3.14,10.15,14,14,0,0,1-10.49,15.05c5.49,7.76,12.12,14.79,19.12,22.22l1.62,1.72Q356.24,70.3,369.1,84.09c16.84,18,34.25,36.62,51.59,54.67a20.25,20.25,0,0,1,5.76,14.41c0,3.59,0,7.2-.06,10.68-.08,8.45-.16,16.44.39,24.39a37,37,0,0,0,1.13,7c.66,2.52,1.75,4.91,7.74,6.44l.24.06a22.22,22.22,0,0,0,3.13.67c9.66.53,14.38,8.32,14.06,15.75a14.09,14.09,0,0,1-4.77,11,13.72,13.72,0,0,1-11.17,3.19q-13.44,0-26.89,0v0H389.61q-16.11,0-32.21,0A13.92,13.92,0,0,1,346.14,229a14.07,14.07,0,0,1-4.65-11.09h0c-.25-9.79,6.9-14.85,13.66-15.42a31.66,31.66,0,0,0,4.26-.86l1.14-.28c4.24-1,6.71-2.77,7.63-9.06a128.68,128.68,0,0,0,.87-17.63c0-4,0-7.93,0-11.9q0-6.18,0-12.37-3.35-3.54-6.74-7.17c-14.13,14-27.24,28.14-38.49,40.41-13.09,14.27-26.28,28.8-38.58,42.38a17.93,17.93,0,0,1-14.48,6.15,416.26,416.26,0,0,0-41.69.43C228.72,232.6,228.34,232.61,228,232.61Zm128.67-.25h0Zm80.93-4h0Zm-208.38,0-.07,0Zm112.3-10.66h0Zm49.61-11.3h13.17a36.91,36.91,0,0,1-1.52-4.56A64.49,64.49,0,0,1,400.84,190c-.61-9-.53-17.84-.45-26.42,0-2.76.06-5.59.06-8.39l-5.38-5.61q0,6.57,0,13.14,0,6,0,12A147.65,147.65,0,0,1,393.9,196,42.15,42.15,0,0,1,391.1,206.36ZM268,206h.23l1.59-1.75C269.25,204.87,268.64,205.46,268,206Zm89-96.82a15.51,15.51,0,0,1-3.82,6.54l-.07.07c-.13.15-.27.29-.4.43a15.48,15.48,0,0,1,7.3-3.82ZM288.48,28.59c2.08,1.8,4,3.58,5.83,5.29-.09-.32-.17-.64-.25-1a24.11,24.11,0,0,1-.67-4.36Zm44.25-8.82v0Zm-107.62-.33v0Z"/><path class="cls-1" d="M413.38,141.79c-2.18-2.17-4-3.47-4-6.5.11-29.93.07-59.86.07-89.79,0-.59,0-1.18,0-1.78,0-1.66.05-3.44-2.21-3.65s-3.16.89-3.17,3.6v87.9c-2-1.46-3.32-2.75-3.32-5.23q.11-40.91.05-81.8a16.45,16.45,0,0,0-.17-2.43A2.3,2.3,0,0,0,398,40a2.45,2.45,0,0,0-2.67,2.12,11.59,11.59,0,0,0-.08,2.21q0,37.8,0,75.6v2.53c-2.45-2.33-4.05-4.28-4-7.77.2-23.5.12-47,.11-70.5a10.13,10.13,0,0,0-.18-2A2.48,2.48,0,0,0,388.55,40,2.27,2.27,0,0,0,386,42.25a59.43,59.43,0,0,0-.19,6q0,31.26,0,62.52c0,.36-.05.71-.1,1.6-1.92-1.94-3.83-3.12-3.82-6,.06-19,.08-38-.11-57-.06-6.32-.86-12.6-4-18.32-3-5.5-8.06-8.06-13.79-9.62-2.84-.78-5.73-1.29-8.63-1.81-1.81-.33-.72-2-.91-3.12-.25-1.41.83-1.26,1.72-1.25,9.38,0,18.77.12,28.15.12q26.72,0,53.43-.1a2.59,2.59,0,0,1,2.41,3.91c-.36.67-1,.43-1.57.53-5.56,1-11.11,2.1-15.89,5.43a18.69,18.69,0,0,0-7.13,10.53c-2,6.87-2.17,14-2.18,21q-.06,41.36,0,82.7Z"/><path class="cls-1" d="M426.38,173.06,404.21,151l-.67-.66a23.82,23.82,0,0,1-5.38-7l-1.65-1.18a21.55,21.55,0,0,1-6.23-6.44l-4-3.79a28.54,28.54,0,0,1-4.4-5l-5.36-5.41-.67-.65c-2.08-2-6.94-6.53-6.92-14.56.06-18.15.08-37.59-.11-56.81-.06-5.51-.8-9.27-2.4-12.17-.43-.78-1.15-2.08-5.83-3.36-2.27-.62-4.79-1.07-7.46-1.55a14.11,14.11,0,0,1-11.69-15.92,13.86,13.86,0,0,1,3.28-9.39,14,14,0,0,1,11.12-4.87h.35l8.56,0c6.53,0,13.08.07,19.59.07q18.39,0,36.79-.07l16.61,0a15.58,15.58,0,0,1,13.9,23.06,13.83,13.83,0,0,1-11.41,7.3c-4.15.79-7.71,1.53-10.07,3.17-.4.28-1.33.93-2.1,3.53-1.51,5.14-1.64,10.92-1.65,17.4q0,30.12,0,60.23ZM441,32.46h0ZM341.68,18.74v0Z"/><path class="cls-1" d="M502.51,116.84c0,20.62,0,40.56,0,60.5,0,3.33.21,6.64.53,9.95.81,8.34,4.69,12.69,13.32,13.58,17.32,1.79,34.66,1.93,51.81-1.67A43.13,43.13,0,0,0,591.89,186c.28-.31.49-.75,1.2-.78-1.9,8.54-3.8,17-9.41,24-5.27,6.58-12.39,9.73-20.64,10-10.48.29-21,.14-31.47.16q-42.45.06-84.89.17c-2.11,0-2.43-.71-2.32-2.5.07-1,.32-1.31,1.33-1.48,2.54-.42,5.07-1,7.56-1.62,10.21-2.68,15.43-9.6,16.91-19.8a134.36,134.36,0,0,0,.95-19c0-7.68,0-15.36,0-23a4.36,4.36,0,0,1,1.33-3.3c6.71-7.06,13.38-14.17,20.06-21.26Z"/><path class="cls-1" d="M446.65,232.49a14.66,14.66,0,0,1-15.26-16.3,14.19,14.19,0,0,1,12.16-13.5c2.09-.35,4.24-.81,6.4-1.38,4.06-1.06,6.44-2.83,7.35-9.09a120.47,120.47,0,0,0,.8-17.17V172.6c0-6.72,0-13.66,0-20.45A17.41,17.41,0,0,1,463,139.76q7.17-7.55,14.29-15.13l5.74-6.09c2.16-2.29,4.32-4.58,6.62-7l25.88-27.37v48.11c0,15.21,0,30.14,0,45.07,0,2.58.15,5.42.47,8.68a10.44,10.44,0,0,0,.27,1.67,10.16,10.16,0,0,0,1.45.24c18.68,1.93,33.87,1.46,47.81-1.46a30.18,30.18,0,0,0,16.61-9.1,14.24,14.24,0,0,1,10.53-5.2l16.78-.58L605.78,188c-2.08,9.34-4.43,19.93-11.95,29.32s-18,14.49-30.42,14.84c-7.86.22-15.75.2-23.38.18-2.81,0-5.63,0-8.44,0l-22.13,0c-20.56,0-41.82.05-62.72.14Zm37.45-77.21c0,5.83,0,11.68,0,17.37v2.45A144.05,144.05,0,0,1,483,196a42.69,42.69,0,0,1-2.84,10.44l17.63,0c-4.35-4.29-7-10.3-7.73-17.81-.4-4.12-.59-7.79-.59-11.22,0-9.24,0-18.48,0-27.78Z"/><path class="cls-1" d="M498.87,111.72v-5.67q0-30.7,0-61.41a10,10,0,0,0,0-1.55c-.24-1.64-.75-3.06-2.8-3.06s-2.69,1.25-2.74,3c-.07,2.06-.05,4.13-.05,6.2,0,21.65-.12,43.31.07,65a9.13,9.13,0,0,1-3.82,8.07c-.51-.73-.26-1.55-.26-2.32q0-38.13,0-76.26c0-1.86-.19-3.47-2.49-3.64-1.74-.13-2.85.61-2.87,2.49q0,3.45,0,6.88,0,38.57.06,77.15c0,2.4-1.57,3.43-3.11,4.9a8.89,8.89,0,0,1-.34-3.75q0-40.78,0-81.58c0-1.25,0-2.51-.07-3.77-.05-1.66-1-2.35-2.59-2.34s-2.7.71-2.72,2.48c0,3.92,0,7.83,0,11.75,0,27.12,0,54.24.1,81.36,0,2.63-1.7,3.76-3,5.27-.69.8-.8-.36-.82-.85-.13-2.87-.07-5.74-.06-8.61q.11-33.81,0-67.61a196.49,196.49,0,0,0-.74-20.59c-.5-4.59-1.49-9.11-4-13.11-3.72-5.85-9.63-8.07-16-9.56a35.29,35.29,0,0,0-4.77-.84c-1.08-.09-1.3-.53-1.37-1.51-.19-3-.22-3,2.73-3q40.46.29,80.91,0c1,0,2.26-.28,2,1.43-.21,1.2,1,2.78-1.69,3.15-6,.83-11.89,2.05-16.88,5.84-3.91,3-6,7-7.15,11.66-1.84,7.54-1.78,15.21-1.77,22.89,0,15.59,0,31.18.05,46.77C502.58,109.5,500.48,110.24,498.87,111.72Z"/><path class="cls-1" d="M471.72,154.16a13.27,13.27,0,0,1-4.29-.72,13.73,13.73,0,0,1-9.1-12.82c-.12-2.62-.11-5.11-.09-7.52v-1.72c.07-23,.07-45.73,0-67.54v-1a172.25,172.25,0,0,0-.67-18.18c-.39-3.59-1-5.92-2.07-7.57-.92-1.44-2.57-2.6-8-3.87a24.26,24.26,0,0,0-2.95-.54A14.15,14.15,0,0,1,431.43,19c-.17-2.62-.52-7.89,3.71-12.38s9.51-4.45,12.08-4.43c27.87.19,55,.19,80.65,0C534,2,537.65,4.67,539.64,7A13.84,13.84,0,0,1,543,17.07c.5,8.12-4.69,14.44-12.91,15.59-4.88.68-8.39,1.48-10.82,3.32-.8.61-1.7,1.6-2.38,4.39-1.42,5.82-1.41,12.32-1.4,19.2v.59q0,8,0,16.09c0,10,0,20.43,0,30.63.05,8.45-5.74,12.8-7.64,14.23l-.33.25-3.52,3.26a22.58,22.58,0,0,1-6.65,7.95L495,134.4a20.79,20.79,0,0,1-4.86,6.07l-.44.4-4.08,3.89a22.82,22.82,0,0,1-3.35,4.26l-.33.35a13.84,13.84,0,0,1-5.08,3.73l-.84.8-.18-.42A13,13,0,0,1,471.72,154.16ZM542.81,18.87v0Zm0,0h0Z"/><path class="cls-2" d="M561.9,119.4c0-21.58,0-43.16,0-64.74a96.89,96.89,0,0,0-1.17-15c-1.62-10.13-7.45-16.22-17.3-18.62a37.31,37.31,0,0,0-6.5-1.26c-2.62-.15-1.54-1.93-1.72-3.16-.25-1.77,1.05-1.36,2-1.35,27.41.36,54.83.35,82.25.3,16,0,31.93-.12,47.87-.86a114.11,114.11,0,0,0,15.86-1.61c.83-.15,1.54-.41,1.34,1.07-1.94,14.57-1.66,29.19-.74,43.81,0,.52,0,1,.07,1.55.07.85.14,1.65-1.09,1.69-.93,0-1.83.4-2.34-.9-.93-2.4-2-4.73-3.07-7.08-5.09-11.5-13.83-18.4-26.22-20.36a138.19,138.19,0,0,0-43.25.11c-9,1.43-12.84,6.1-14,15.18a95.8,95.8,0,0,0-.64,11.72c-.05,13.16,0,26.31-.06,39.47,0,1.8.44,2.35,2.31,2.32,14.63-.21,29.26.29,43.89-.43A51.78,51.78,0,0,0,650.5,99.6c6.7-1.83,10.36-6.27,11.14-13,.25-2.19,1.52-1.63,2.75-1.75,1.64-.17,1.29,1,1.27,1.87-.39,16-.42,31.92,0,47.88,0,.82.36,2-1.16,1.69-1-.2-2.51.85-2.83-1.35-1.08-7.41-5.87-11.23-12.83-12.81-6.39-1.45-12.89-1.64-19.39-1.7-11.45-.11-22.91,0-34.36-.09-1.66,0-1.92.57-1.92,2,.05,18,0,36.07.14,54.1a6.07,6.07,0,0,1-1.95,4.77,45.82,45.82,0,0,1-28,13.82c-1.25.14-1.63,0-1.63-1.36q.06-37.14,0-74.28Z"/><path class="cls-2" d="M397.25,219.39q-20.29,0-40.57,0c-.83,0-2.27.72-2.2-1.18,0-1.25-.4-2.56,1.75-2.74a50.43,50.43,0,0,0,7.36-1.46c10.45-2.52,15.93-9.39,17.45-19.82a139.13,139.13,0,0,0,1-19.46c0-9.16,0-18.33,0-27.49a4.63,4.63,0,0,0-1.44-3.5c-5.48-5.8-11-11.6-16.3-17.52-1.32-1.46-1.94-1.24-3.2,0-16.22,15.65-31.67,32.05-46.89,48.66Q294.87,196,275.62,217.27a5,5,0,0,1-4.35,1.88c-14.34-.53-28.67-.44-43,.45-2,.13-3-.9-3-2.95,0-.86.56-.89,1.14-1,16.39-3.92,28.56-14.28,39.71-26.13q38.79-41.25,77.51-82.56c.75-.81,1.34-1.33.25-2.47C325.06,84.76,307,64.31,287.44,45.31c-8.06-7.83-16.61-15.09-26.81-20.11a44.51,44.51,0,0,0-20.85-5.07c-2.9.07-1.65-1.87-1.89-3.12-.3-1.51.44-1.8,1.85-1.77,26.16.55,52.32.46,78.48,0,1.49,0,2.11.4,1.8,1.83-.25,1.15,1.09,3.22-1.69,3.05a20.92,20.92,0,0,0-5.95.47c-4.8,1.09-6.88,4.43-5.7,9.24a29.26,29.26,0,0,0,4.8,9.64c6.57,9.43,14.52,17.68,22.37,26,25.82,27.43,51.36,55.12,77.47,82.28a7.24,7.24,0,0,1,2.13,5.46c0,12-.46,23.95.36,35.91a50.54,50.54,0,0,0,1.52,9.38c2.33,8.91,8.59,13.58,17.12,15.75a31,31,0,0,0,5.85,1.11c2.31.13,1.73,1.64,1.78,2.93.08,1.79-1.29,1-2,1q-20.4.06-40.79,0Z"/><path class="cls-3" d="M413.38,141.79c-2.18-2.17-4-3.47-4-6.5.11-29.93.07-59.86.07-89.79,0-.59,0-1.18,0-1.78,0-1.66.05-3.44-2.21-3.65s-3.16.89-3.17,3.6v87.9c-2-1.46-3.32-2.75-3.32-5.23q.11-40.91.05-81.8a16.45,16.45,0,0,0-.17-2.43A2.3,2.3,0,0,0,398,40a2.45,2.45,0,0,0-2.67,2.12,11.59,11.59,0,0,0-.08,2.21q0,37.8,0,75.6v2.53c-2.45-2.33-4.05-4.28-4-7.77.2-23.5.12-47,.11-70.5a10.13,10.13,0,0,0-.18-2A2.48,2.48,0,0,0,388.55,40,2.27,2.27,0,0,0,386,42.25a59.43,59.43,0,0,0-.19,6q0,31.26,0,62.52c0,.36-.05.71-.1,1.6-1.92-1.94-3.83-3.12-3.82-6,.06-19,.08-38-.11-57-.06-6.32-.86-12.6-4-18.32-3-5.5-8.06-8.06-13.79-9.62-2.84-.78-5.73-1.29-8.63-1.81-1.81-.33-.72-2-.91-3.12-.25-1.41.83-1.26,1.72-1.25,9.38,0,18.77.12,28.15.12q26.72,0,53.43-.1a2.59,2.59,0,0,1,2.41,3.91c-.36.67-1,.43-1.57.53-5.56,1-11.11,2.1-15.89,5.43a18.69,18.69,0,0,0-7.13,10.53c-2,6.87-2.17,14-2.18,21q-.06,41.36,0,82.7Z"/><path class="cls-2" d="M502.51,116.84c0,20.62,0,40.56,0,60.5,0,3.33.21,6.64.53,9.95.81,8.34,4.69,12.69,13.32,13.58,17.32,1.79,34.66,1.93,51.81-1.67A43.13,43.13,0,0,0,591.89,186c.28-.31.49-.75,1.2-.78-1.9,8.54-3.8,17-9.41,24-5.27,6.58-12.39,9.73-20.64,10-10.48.29-21,.14-31.47.16q-42.45.06-84.89.17c-2.11,0-2.43-.71-2.32-2.5.07-1,.32-1.31,1.33-1.48,2.54-.42,5.07-1,7.56-1.62,10.21-2.68,15.43-9.6,16.91-19.8a134.36,134.36,0,0,0,.95-19c0-7.68,0-15.36,0-23a4.36,4.36,0,0,1,1.33-3.3c6.71-7.06,13.38-14.17,20.06-21.26Z"/><path class="cls-3" d="M498.87,111.72v-5.67q0-30.7,0-61.41a10,10,0,0,0,0-1.55c-.24-1.64-.75-3.06-2.8-3.06s-2.69,1.25-2.74,3c-.07,2.06-.05,4.13-.05,6.2,0,21.65-.12,43.31.07,65a9.13,9.13,0,0,1-3.82,8.07c-.51-.73-.26-1.55-.26-2.32q0-38.13,0-76.26c0-1.86-.19-3.47-2.49-3.64-1.74-.13-2.85.61-2.87,2.49q0,3.45,0,6.88,0,38.57.06,77.15c0,2.4-1.57,3.43-3.11,4.9a8.89,8.89,0,0,1-.34-3.75q0-40.78,0-81.58c0-1.25,0-2.51-.07-3.77-.05-1.66-1-2.35-2.59-2.34s-2.7.71-2.72,2.48c0,3.92,0,7.83,0,11.75,0,27.12,0,54.24.1,81.36,0,2.63-1.7,3.76-3,5.27-.69.8-.8-.36-.82-.85-.13-2.87-.07-5.74-.06-8.61q.11-33.81,0-67.61a196.49,196.49,0,0,0-.74-20.59c-.5-4.59-1.49-9.11-4-13.11-3.72-5.85-9.63-8.07-16-9.56a35.29,35.29,0,0,0-4.77-.84c-1.08-.09-1.3-.53-1.37-1.51-.19-3-.22-3,2.73-3q40.46.29,80.91,0c1,0,2.26-.28,2,1.43-.21,1.2,1,2.78-1.69,3.15-6,.83-11.89,2.05-16.88,5.84-3.91,3-6,7-7.15,11.66-1.84,7.54-1.78,15.21-1.77,22.89,0,15.59,0,31.18.05,46.77C502.58,109.5,500.48,110.24,498.87,111.72Z"/></g></g></svg>