<svg xmlns="http://www.w3.org/2000/svg" viewBox="0 0 459.25 206.63"><defs><style>.cls-1{fill:#030266;}.cls-2{fill:#ccad0e;}</style></defs><title>logo-3</title><g id="Layer_2" data-name="Layer 2"><g id="Layer_1-2" data-name="Layer 1"><path class="cls-1" d="M336.6,106.42c0-21.58,0-43.16,0-64.74a96.9,96.9,0,0,0-1.18-15C333.79,16.55,328,10.46,318.11,8.06a37.31,37.31,0,0,0-6.5-1.26c-2.63-.15-1.54-1.93-1.72-3.16-.25-1.77,1.05-1.36,2-1.35,27.41.36,54.83.35,82.25.3,16,0,31.92-.12,47.87-.86A115.51,115.51,0,0,0,457.87.12c.83-.15,1.55-.42,1.35,1.07-1.94,14.57-1.66,29.19-.74,43.81,0,.52,0,1,.07,1.55.07.85.14,1.65-1.1,1.69-.92,0-1.82.4-2.33-.9-.94-2.4-2-4.73-3.08-7.08-5.08-11.5-13.83-18.4-26.22-20.36a138.13,138.13,0,0,0-43.24.11c-9,1.43-12.84,6.1-14,15.18a97.84,97.84,0,0,0-.65,11.72c-.05,13.16,0,26.31-.05,39.47,0,1.8.43,2.35,2.31,2.32,14.63-.21,29.26.29,43.89-.43a51.87,51.87,0,0,0,11.13-1.65c6.7-1.83,10.36-6.27,11.13-13,.26-2.19,1.53-1.63,2.75-1.75,1.65-.17,1.3,1,1.28,1.87-.39,16-.42,31.92,0,47.88,0,.82.36,2-1.16,1.69-1-.2-2.52.85-2.83-1.35-1.08-7.41-5.87-11.23-12.83-12.81-6.39-1.45-12.9-1.64-19.39-1.7-11.45-.11-22.91,0-34.36-.09-1.66,0-1.93.57-1.92,2,.05,18,0,36.07.13,54.1a6,6,0,0,1-1.94,4.76,45.8,45.8,0,0,1-28,13.83c-1.26.14-1.63,0-1.63-1.36q.06-37.14,0-74.28Z"/><path class="cls-1" d="M172,206.41q-20.28,0-40.56,0c-.83,0-2.28.72-2.2-1.18.05-1.25-.4-2.56,1.75-2.74A50.43,50.43,0,0,0,138.3,201c10.45-2.52,15.92-9.39,17.45-19.82a137.62,137.62,0,0,0,1-19.46c0-9.16,0-18.33.05-27.49a4.67,4.67,0,0,0-1.44-3.51c-5.48-5.79-11-11.59-16.31-17.51-1.31-1.47-1.93-1.24-3.19,0-16.22,15.65-31.67,32.05-46.9,48.66Q69.57,183,50.33,204.29A5,5,0,0,1,46,206.17c-14.33-.53-28.66-.44-43,.45-2,.13-3-.91-3-3,0-.86.56-.89,1.14-1,16.39-3.92,28.56-14.28,39.71-26.13Q79.64,135.26,118.35,94c.76-.81,1.35-1.33.26-2.47C99.77,71.78,81.72,51.33,62.15,32.33c-8.06-7.83-16.61-15.1-26.81-20.11C28.76,9,21.86,7,14.48,7.15c-2.89.07-1.65-1.87-1.89-3.12-.29-1.52.45-1.8,1.86-1.77,26.16.55,52.32.46,78.48,0,1.49,0,2.11.4,1.8,1.82C94.48,5.23,95.82,7.29,93,7.13a20.89,20.89,0,0,0-6,.47c-4.8,1.09-6.88,4.43-5.7,9.24a29.16,29.16,0,0,0,4.8,9.64c6.57,9.43,14.52,17.68,22.37,26,25.82,27.43,51.36,55.12,77.47,82.28a7.19,7.19,0,0,1,2.12,5.46c0,12-.45,23.95.37,35.91a50.54,50.54,0,0,0,1.52,9.38c2.33,8.91,8.59,13.58,17.11,15.75a32,32,0,0,0,5.86,1.11c2.31.13,1.72,1.64,1.78,2.93.08,1.79-1.29,1-2,1q-20.4.06-40.8,0Z"/><path class="cls-2" d="M188.09,128.81c-2.18-2.17-4-3.48-4-6.5.11-29.93.07-59.86.07-89.79,0-.59,0-1.18,0-1.78,0-1.66.05-3.45-2.21-3.65s-3.17.89-3.17,3.6q0,42.24,0,84.47v3.42c-2-1.45-3.33-2.74-3.32-5.22q.1-40.9,0-81.8a16.45,16.45,0,0,0-.17-2.43A2.3,2.3,0,0,0,172.73,27a2.44,2.44,0,0,0-2.67,2.12,10.82,10.82,0,0,0-.08,2.21q0,37.8,0,75.6v2.53c-2.45-2.33-4.05-4.28-4-7.77.2-23.5.11-47,.11-70.5a10.13,10.13,0,0,0-.18-2,2.49,2.49,0,0,0-2.6-2.22,2.27,2.27,0,0,0-2.5,2.24,59.43,59.43,0,0,0-.19,6q0,31.26,0,62.52c0,.36,0,.71-.09,1.6-1.92-1.94-3.83-3.12-3.82-6,.06-19,.07-38-.11-57-.07-6.32-.86-12.6-4-18.32-3-5.5-8.06-8.06-13.79-9.62-2.84-.78-5.73-1.29-8.63-1.81-1.82-.33-.72-2.05-.91-3.12-.25-1.41.82-1.26,1.71-1.25,9.39,0,18.77.12,28.16.12q26.72,0,53.43-.11a2.6,2.6,0,0,1,2.41,3.91c-.36.68-1,.44-1.57.54-5.56,1-11.12,2.1-15.89,5.43a18.66,18.66,0,0,0-7.13,10.52c-2,6.88-2.17,14-2.18,21.05q-.06,41.35,0,82.7Z"/><path class="cls-1" d="M277.22,103.86c0,20.62,0,40.56,0,60.5a97.23,97.23,0,0,0,.53,9.95c.81,8.34,4.68,12.69,13.32,13.58,17.32,1.79,34.66,1.93,51.81-1.67A43.16,43.16,0,0,0,366.6,173c.28-.31.49-.75,1.2-.78-1.9,8.54-3.8,17-9.41,24-5.27,6.59-12.39,9.74-20.64,10-10.49.29-21,.14-31.47.16q-42.45.06-84.89.17c-2.11,0-2.43-.71-2.32-2.5.06-1,.32-1.31,1.33-1.48,2.54-.42,5.06-1,7.56-1.62,10.21-2.68,15.43-9.6,16.91-19.81a132.74,132.74,0,0,0,.94-19c0-7.68,0-15.36,0-23.05a4.32,4.32,0,0,1,1.33-3.3c6.71-7.06,13.38-14.17,20.06-21.26Z"/><path class="cls-2" d="M273.58,98.74V93.07q0-30.7,0-61.41a10,10,0,0,0,0-1.55c-.24-1.64-.75-3.06-2.8-3.06s-2.69,1.25-2.75,3c-.06,2.06,0,4.13,0,6.2,0,21.65-.12,43.31.07,65a9.17,9.17,0,0,1-3.82,8.07c-.52-.73-.26-1.55-.26-2.32q0-38.13,0-76.26c0-1.86-.2-3.47-2.49-3.64-1.74-.13-2.85.61-2.87,2.49,0,2.29-.05,4.59-.05,6.88,0,25.71,0,51.43.07,77.14,0,2.41-1.57,3.44-3.11,4.91a8.9,8.9,0,0,1-.35-3.75q0-40.78,0-81.58c0-1.26,0-2.51-.07-3.77-.05-1.66-1-2.35-2.59-2.34s-2.71.71-2.72,2.48c0,3.91,0,7.83,0,11.75,0,27.12-.05,54.24.09,81.36,0,2.63-1.69,3.76-3,5.27-.69.8-.8-.36-.82-.85-.13-2.87-.07-5.74-.06-8.61q.1-33.81,0-67.61a193.82,193.82,0,0,0-.75-20.59c-.5-4.59-1.48-9.11-4-13.11-3.72-5.85-9.63-8.07-16-9.56a35.29,35.29,0,0,0-4.77-.84c-1.09-.09-1.3-.53-1.37-1.51-.19-3-.22-3,2.73-3q40.46.29,80.91,0c1,0,2.26-.28,2,1.43-.21,1.2,1,2.77-1.69,3.15-6,.83-11.89,2.05-16.88,5.84-3.91,3-6,7-7.15,11.66-1.84,7.54-1.78,15.21-1.77,22.89,0,15.59,0,31.18,0,46.77C277.29,96.52,275.18,97.26,273.58,98.74Z"/></g></g></svg>