<svg xmlns="http://www.w3.org/2000/svg" viewBox="0 0 472.25 219.62"><defs><style>.cls-1{fill:#fff;}.cls-2{fill:#030266;}.cls-3{fill:#ccad0e;}</style></defs><title>logo-1</title><g id="Layer_2" data-name="Layer 2"><g id="Layer_1-2" data-name="Layer 1"><path class="cls-1" d="M343.1,112.91c0-21.58,0-43.16,0-64.74a96.8,96.8,0,0,0-1.18-15C340.29,23,334.46,17,324.61,14.55a36.41,36.41,0,0,0-6.5-1.26c-2.63-.15-1.54-1.93-1.72-3.17-.25-1.77,1.05-1.36,2-1.34,27.41.35,54.83.34,82.25.3,16,0,31.92-.12,47.87-.87a115.49,115.49,0,0,0,15.85-1.6c.83-.16,1.55-.42,1.35,1.07-1.94,14.57-1.66,29.18-.74,43.81,0,.51,0,1,.07,1.55.07.85.14,1.65-1.1,1.69-.92,0-1.82.39-2.33-.91-.94-2.39-2-4.72-3.08-7.08-5.08-11.49-13.83-18.39-26.22-20.35a137.83,137.83,0,0,0-43.24.11c-9,1.42-12.84,6.1-14,15.18a97.61,97.61,0,0,0-.65,11.72c-.05,13.15,0,26.31-.05,39.46,0,1.8.43,2.35,2.31,2.33,14.63-.22,29.26.28,43.89-.44a51.26,51.26,0,0,0,11.13-1.65c6.7-1.82,10.36-6.26,11.13-13,.26-2.19,1.53-1.63,2.75-1.76,1.65-.16,1.3,1,1.28,1.87-.39,16-.42,31.92,0,47.88,0,.83.36,2-1.16,1.69-1-.19-2.52.86-2.83-1.34-1.08-7.41-5.87-11.23-12.83-12.82-6.39-1.45-12.9-1.63-19.39-1.69-11.45-.12-22.91,0-34.36-.09-1.66,0-1.93.56-1.92,2,.05,18,0,36.06.13,54.09a6,6,0,0,1-1.94,4.77,45.79,45.79,0,0,1-28,13.82c-1.26.15-1.63,0-1.63-1.36q.06-37.14,0-74.27Z"/><path class="cls-1" d="M344,195.09a7.47,7.47,0,0,1-5.07-1.85,7.73,7.73,0,0,1-2.47-6.07q0-30.64,0-61.29V106.41h.13V95.51c0-15.51,0-31.55,0-47.32a90.55,90.55,0,0,0-1.1-14c-1.18-7.41-5-11.52-12.41-13.33l-1-.24a25.14,25.14,0,0,0-4.35-.84,8.37,8.37,0,0,1-6.1-2.82,8.28,8.28,0,0,1-1.75-6.46,7.61,7.61,0,0,1,1.93-5.94,7.87,7.87,0,0,1,6.59-2.29h.14c27.09.35,54.29.35,82.09.3,15.22,0,31.44-.11,47.58-.86a109.71,109.71,0,0,0,15-1.5l.11,0A7.25,7.25,0,0,1,470,1.87a7.47,7.47,0,0,1,2.14,6.67c-2,15.28-1.44,30.76-.7,42.54,0,.28,0,.58,0,.87s0,.37,0,.55a8,8,0,0,1-1.83,6.24,7.6,7.6,0,0,1-5.54,2.48h-.06a7.77,7.77,0,0,1-8.53-5c-.63-1.62-1.36-3.23-2.13-4.94l-.84-1.88c-4.22-9.55-11.19-15-21.29-16.56a131.58,131.58,0,0,0-41.21.11c-5.82.92-7.74,3.07-8.57,9.58a87.39,87.39,0,0,0-.6,10.92q0,9,0,18.09,0,8.56,0,17.13c4.05,0,8.08,0,12,0,9,0,18.29.07,27.35-.38A45.22,45.22,0,0,0,430,86.83c4.05-1.1,5.9-3.27,6.39-7.48.42-3.65,2.89-7.57,8.54-7.48h.14a7.61,7.61,0,0,1,6.14,2,7.72,7.72,0,0,1,2.16,6.39v.13c-.4,16.28-.4,32.27,0,47.49v0A7.52,7.52,0,0,1,451,134.5a7.29,7.29,0,0,1-5.67,1.79c-5.38.57-8.34-3-8.91-6.92-.43-3-1.69-6-7.84-7.41-5.77-1.31-11.81-1.47-18-1.53-6-.06-12.18-.06-18.13-.06-3.86,0-7.72,0-11.58,0,0,4.92,0,9.8,0,14.69,0,11.43,0,23.24.1,34.85a12.45,12.45,0,0,1-3.83,9.4A52.36,52.36,0,0,1,345.32,195,11.66,11.66,0,0,1,344,195.09Zm5.49-75.68v6.47q0,27.59,0,55.17A39.67,39.67,0,0,0,368,170.14l.05-.06V170c-.09-11.65-.1-23.49-.1-34.94q0-9.6,0-19.19a8.47,8.47,0,0,1,2.31-6.24,8.32,8.32,0,0,1,6.16-2.29c5.37,0,10.74,0,16.11,0,6,0,12.17,0,18.26.06,6.66.06,13.74.26,20.77,1.86a26.92,26.92,0,0,1,8.61,3.45c-.05-5.36-.05-10.8,0-16.29a23.82,23.82,0,0,1-6.68,2.92,57.6,57.6,0,0,1-12.52,1.88c-9.4.46-18.87.42-28,.39-5.28,0-10.74,0-16.08,0a8.2,8.2,0,0,1-8.9-8.86q.06-10.67,0-21.31,0-9.07,0-18.15a99.3,99.3,0,0,1,.71-12.52c1.57-12.32,7.74-18.93,19.43-20.77A144.73,144.73,0,0,1,433.34,20a39.22,39.22,0,0,1,24.44,13.31c0-6.14.13-12.65.71-19.26-3.32.35-6.56.54-9.67.68-16.41.77-32.79.86-48.16.88-20.44,0-40.56.05-60.59-.09,4.35,4.15,7.15,9.75,8.25,16.65a104,104,0,0,1,1.26,16c0,15.79,0,31.85,0,47.37v23.89ZM445,71.88h0Z"/><path class="cls-1" d="M178.45,212.89c-13.52,0-27,0-40.56,0-.83,0-2.28.73-2.2-1.17.05-1.26-.4-2.57,1.75-2.75a47.91,47.91,0,0,0,7.36-1.46c10.45-2.51,15.92-9.38,17.45-19.81a137.69,137.69,0,0,0,1-19.46c0-9.16,0-18.33.05-27.49a4.67,4.67,0,0,0-1.44-3.51c-5.48-5.8-11-11.59-16.31-17.52-1.31-1.46-1.93-1.23-3.19,0-16.22,15.65-31.67,32.06-46.9,48.67q-19.39,21.15-38.63,42.44a5,5,0,0,1-4.36,1.88,427.92,427.92,0,0,0-43,.45c-2,.13-3-.91-3-3,0-.86.56-.9,1.14-1C24,205.2,36.2,194.85,47.35,183q38.79-41.24,77.5-82.55c.76-.81,1.35-1.33.26-2.47-18.84-19.7-36.89-40.16-56.46-59.16C60.59,31,52,23.72,41.84,18.7,35.26,15.47,28.36,13.46,21,13.64c-2.9.07-1.66-1.87-1.9-3.12C18.8,9,19.54,8.72,21,8.75c26.16.55,52.32.46,78.48,0,1.49,0,2.11.4,1.8,1.82-.25,1.16,1.09,3.22-1.69,3.06a20.88,20.88,0,0,0-6,.46c-4.8,1.1-6.88,4.44-5.7,9.25A29.16,29.16,0,0,0,92.69,33c6.57,9.43,14.52,17.68,22.37,26,25.82,27.43,51.36,55.13,77.47,82.29a7.18,7.18,0,0,1,2.12,5.46c0,12-.45,23.94.37,35.91a50.54,50.54,0,0,0,1.52,9.38c2.33,8.9,8.59,13.58,17.11,15.74a30.43,30.43,0,0,0,5.86,1.11c2.31.13,1.72,1.64,1.78,2.93.08,1.8-1.29,1-2,1q-20.4.06-40.8,0Z"/><path class="cls-1" d="M9.15,219.62a9,9,0,0,1-6.38-2.44A9.23,9.23,0,0,1,0,210.06a7.34,7.34,0,0,1,6.05-7.24c15.62-3.74,27.24-14.37,36.56-24.28q23.69-25.18,47.33-50.4l27.26-29c-5.41-5.71-10.79-11.49-16-17.12-12-12.84-24.3-26.12-37-38.49C57.35,36.89,49.05,29.5,39,24.54c-6.3-3.1-12.14-4.54-17.83-4.4a8.3,8.3,0,0,1-6.61-2.54A8.1,8.1,0,0,1,12.6,11,7.78,7.78,0,0,1,14.29,5a8.19,8.19,0,0,1,6.79-2.73c24.09.5,49.68.5,78.23,0a8.13,8.13,0,0,1,6.79,2.82,7.74,7.74,0,0,1,1.64,6,8,8,0,0,1-1.89,6.65,8.11,8.11,0,0,1-6.7,2.44,14.62,14.62,0,0,0-4.12.31,4.12,4.12,0,0,0-1,.33,3.79,3.79,0,0,0,.13,1A23.8,23.8,0,0,0,98,29.25c5.85,8.4,12.81,15.77,20.17,23.58l1.6,1.7q12.93,13.72,25.8,27.53c16.84,18,34.26,36.64,51.62,54.7a13.59,13.59,0,0,1,3.94,10c0,3.54,0,7.13-.05,10.6-.08,8.2-.16,16.68.4,24.88a43.78,43.78,0,0,0,1.33,8.18c1.54,5.88,5.37,9.3,12.42,11.09l.24.06a23.84,23.84,0,0,0,4.38.86c3.83.22,8.21,2.7,7.92,9v.23a7.34,7.34,0,0,1-9,7.73q-16.52,0-33,0l-15,0q-16.31,0-32.6,0a7.75,7.75,0,0,1-6.54-1.72,7.66,7.66,0,0,1-2.47-6.22v-.19c-.15-6,3.88-8.45,7.71-8.77a37.31,37.31,0,0,0,5.26-1l1.12-.28c7.47-1.8,11.34-6.25,12.54-14.43a133.42,133.42,0,0,0,.93-18.55c0-4,0-7.93,0-11.89q0-7.48,0-15l-.16-.18c-4.24-4.49-8.6-9.1-12.87-13.76-16.06,15.67-30.94,31.64-43.51,45.35-13.17,14.36-26.34,28.87-38.6,42.41a11.46,11.46,0,0,1-9.42,4c-14.65-.55-28.9-.4-42.34.44Zm210.12-.28h0Zm-59-12.94h10.53l15,0h11.63a26.83,26.83,0,0,1-7.19-12.71,57.82,57.82,0,0,1-1.72-10.58c-.59-8.71-.51-17.45-.43-25.9,0-3.42.07-7,.05-10.43a2.07,2.07,0,0,0-.06-.67h0a1.57,1.57,0,0,0-.25-.31C170.41,127.64,153,109,136.09,90.94q-12.87-13.77-25.77-27.5l-1.59-1.69c-7.36-7.81-15-15.88-21.37-25.07a35.24,35.24,0,0,1-5.78-11.8,14.4,14.4,0,0,1,.56-9.39c-11.19.12-21.94.16-32.35.12,9.35,5.46,17,12.34,23.39,18.54,13,12.6,25.45,26,37.51,39,6.24,6.71,12.69,13.65,19.12,20.36,3.92,4.1,2.38,8.67-.14,11.33l-.08.09Q114.5,121,99.42,137q-23.65,25.22-47.34,50.41c-6,6.37-12.86,13-21.09,18.4,7-.06,14.07,0,21.26.3,12.22-13.48,25.32-27.91,38.42-42.21,13.51-14.73,29.68-32.07,47.18-48.95a8.86,8.86,0,0,1,6.4-2.81,8.66,8.66,0,0,1,6.13,3.16c5.13,5.69,10.5,11.37,15.69,16.87l.51.54a11.09,11.09,0,0,1,3.22,8c0,5.17,0,10.34,0,15.51,0,4,0,8,0,12a141.86,141.86,0,0,1-1.07,20.37C167.59,196,164.75,202,160.28,206.4ZM107.58,11.93h0Z"/><path class="cls-1" d="M194.59,135.3c-2.18-2.17-4-3.48-4-6.51.11-29.93.07-59.86.07-89.79,0-.59,0-1.18,0-1.77,0-1.67.05-3.45-2.21-3.66s-3.17.9-3.17,3.61q0,42.23,0,84.47v3.42c-2-1.46-3.33-2.75-3.32-5.22q.1-40.9,0-81.81a16.22,16.22,0,0,0-.17-2.42,2.31,2.31,0,0,0-2.61-2.1,2.45,2.45,0,0,0-2.67,2.12,11.65,11.65,0,0,0-.08,2.21q0,37.8,0,75.6V116c-2.45-2.32-4.05-4.28-4-7.77.2-23.49.11-47,.11-70.49a10.06,10.06,0,0,0-.18-2,2.5,2.5,0,0,0-2.6-2.23,2.28,2.28,0,0,0-2.5,2.25,59.43,59.43,0,0,0-.19,6q0,31.26,0,62.52c0,.35,0,.71-.09,1.59-1.92-1.94-3.83-3.11-3.82-6,.06-19,.07-38-.11-57-.07-6.33-.86-12.6-4-18.33-3-5.5-8.06-8-13.79-9.62-2.84-.77-5.73-1.29-8.63-1.81-1.82-.32-.72-2-.91-3.12-.25-1.4.82-1.25,1.71-1.25,9.39,0,18.77.13,28.16.12q26.72,0,53.43-.1a2.6,2.6,0,0,1,2.41,3.91c-.36.67-1,.43-1.57.54-5.56,1-11.12,2.1-15.89,5.42a18.72,18.72,0,0,0-7.13,10.53c-2,6.88-2.17,14-2.18,21q-.06,41.34,0,82.69Z"/><path class="cls-1" d="M201.09,150.93l-11.09-11c-.25-.26-.5-.5-.75-.73a15.75,15.75,0,0,1-4.57-6.55l-3.18-2.27a14.55,14.55,0,0,1-4.81-5.18L172,120.7a21.87,21.87,0,0,1-3.79-4.4l-5.83-5.88c-.28-.29-.56-.55-.83-.8-1.83-1.72-4.88-4.6-4.87-9.82,0-18.12.08-37.56-.11-56.89-.07-6.65-1.06-11.35-3.21-15.25-1.74-3.14-4.67-5.08-9.81-6.49-2.56-.69-5.24-1.17-8.06-1.68s-7.18-3-6.28-9.24a7.38,7.38,0,0,1,1.7-5.45,7.88,7.88,0,0,1,6.41-2.58h.14l8.41,0q9.87.06,19.72.07,18.52,0,37.06-.06l16.35,0h0a9.2,9.2,0,0,1,8,4.43,9.1,9.1,0,0,1,.15,9.06,7.39,7.39,0,0,1-6.47,3.91c-4.86.92-9.43,1.82-13,4.31-2.19,1.52-3.65,3.75-4.62,7-1.75,6-1.9,12.24-1.91,19.23q0,30.12,0,60.24ZM169.68,27h.19a9.43,9.43,0,0,1,4.56,1.24A9.85,9.85,0,0,1,179.26,27a9.74,9.74,0,0,1,4.37,1,10.35,10.35,0,0,1,6.93-.69.43.43,0,0,1,0-.05,26,26,0,0,1,7.16-12q-16.08,0-32.17.05H160a23.46,23.46,0,0,1,4.73,6,34.52,34.52,0,0,1,2.58,5.92A9.84,9.84,0,0,1,169.68,27Z"/><path class="cls-1" d="M283.72,110.34c0,20.62,0,40.56,0,60.5a97.43,97.43,0,0,0,.53,10c.81,8.33,4.68,12.68,13.32,13.58,17.32,1.78,34.66,1.93,51.81-1.67a43.11,43.11,0,0,0,23.73-13.26c.28-.31.49-.75,1.2-.77-1.9,8.54-3.8,17-9.41,24-5.27,6.59-12.39,9.74-20.64,10-10.48.3-21,.15-31.47.17-28.3,0-56.59,0-84.89.16-2.11,0-2.43-.71-2.32-2.49.06-1,.32-1.31,1.33-1.48q3.81-.65,7.56-1.63c10.21-2.67,15.43-9.6,16.91-19.8a132.81,132.81,0,0,0,.94-19c0-7.68,0-15.37,0-23.05a4.33,4.33,0,0,1,1.33-3.31c6.71-7.06,13.38-14.17,20.06-21.26Z"/><path class="cls-1" d="M227.86,219.49a8.69,8.69,0,0,1-6.63-2.55,8.91,8.91,0,0,1-2.15-6.84,7.68,7.68,0,0,1,6.75-7.49c2.28-.38,4.63-.89,7-1.5,7.21-1.89,10.95-6.35,12.13-14.45a129.65,129.65,0,0,0,.87-18.09v-2.78c0-6.63,0-13.48,0-20.2a10.75,10.75,0,0,1,3.11-7.84q7.23-7.6,14.41-15.26l5.64-6,6.9-7.3L290.22,94v31.77c0,15.22,0,30.14,0,45.07a92.82,92.82,0,0,0,.5,9.32c.53,5.46,2.21,7.19,7.52,7.74,19.37,2,35.19,1.5,49.81-1.56a36.38,36.38,0,0,0,20.17-11.19,7.81,7.81,0,0,1,5.86-3l8.39-.29-1.82,8.2c-2,9.07-4.1,18.46-10.68,26.66-6.26,7.82-15.09,12.11-25.53,12.41-7.73.22-15.55.2-23.11.18l-8.53,0-22.26,0c-20.52,0-41.75.06-62.61.14Zm30.93-73.28c0,6.55,0,13.18,0,19.6v2.78a138.2,138.2,0,0,1-1,19.93c-1.08,7.47-3.94,13.49-8.42,17.9l41.13-.07,22.26,0,8.58,0c7.46,0,15.18,0,22.72-.18,6.69-.19,11.84-2.65,15.75-7.53a26.56,26.56,0,0,0,2.2-3.22,54.64,54.64,0,0,1-11.31,3.66c-16,3.35-33.07,3.91-53.81,1.77-11.56-1.19-18-7.72-19.13-19.42a106,106,0,0,1-.56-10.59c0-14.63,0-29.25,0-44.15l-4.45,4.73Q265.78,138.82,258.79,146.21Z"/><path class="cls-1" d="M280.08,105.23V99.55q0-30.7,0-61.41a10,10,0,0,0,0-1.55c-.24-1.63-.75-3.06-2.8-3.06s-2.69,1.26-2.75,3c-.06,2.07,0,4.14,0,6.21,0,21.65-.12,43.3.07,64.95a9.18,9.18,0,0,1-3.82,8.08c-.52-.74-.26-1.56-.26-2.33q0-38.13,0-76.26c0-1.86-.2-3.47-2.49-3.63-1.74-.13-2.85.6-2.87,2.49q0,3.43-.05,6.87c0,25.72,0,51.43.07,77.15,0,2.41-1.57,3.44-3.11,4.9a8.86,8.86,0,0,1-.35-3.74q0-40.78,0-81.58c0-1.26,0-2.52-.07-3.77-.05-1.67-1-2.36-2.59-2.34s-2.71.71-2.72,2.47c0,3.92,0,7.84,0,11.75,0,27.12-.05,54.24.1,81.36,0,2.64-1.7,3.76-3,5.28-.69.8-.8-.36-.82-.85-.13-2.87-.07-5.74-.06-8.61q.1-33.81,0-67.62a196.3,196.3,0,0,0-.74-20.58c-.51-4.59-1.49-9.11-4-13.11-3.72-5.86-9.63-8.07-16-9.57a33.76,33.76,0,0,0-4.77-.83c-1.09-.1-1.3-.54-1.37-1.52-.19-2.95-.22-3,2.73-3q40.46.27,80.91,0c1,0,2.26-.28,2,1.43-.21,1.19,1,2.77-1.69,3.14-6,.84-11.89,2.06-16.88,5.84-3.91,3-6,7-7.15,11.66-1.84,7.54-1.78,15.21-1.77,22.89,0,15.59,0,31.19,0,46.78C283.79,103,281.68,103.75,280.08,105.23Z"/><path class="cls-1" d="M253,141.17a6.77,6.77,0,0,1-2.2-.37c-1.35-.47-4.5-2.07-4.72-7-.11-2.45-.1-4.86-.08-7.19v-1.73c.07-23.07.07-45.81,0-67.58v-1a175.82,175.82,0,0,0-.71-18.84c-.5-4.63-1.44-7.81-3-10.34-2.42-3.81-6.53-5.44-12-6.72a28.17,28.17,0,0,0-3.86-.69,7.66,7.66,0,0,1-7.27-7.57c-.15-2.19-.34-5.07,2-7.49s5.2-2.4,7.3-2.39c27.9.19,55.09.18,80.82,0h.17A8,8,0,0,1,316,4.73a7.57,7.57,0,0,1,1.76,5.83c.62,5.92-3.53,8.64-7.29,9.17-5.92.83-10.3,1.88-13.85,4.58-2.35,1.79-3.87,4.33-4.77,8-1.6,6.59-1.59,13.47-1.58,20.76v.58c0,5.36,0,10.72,0,16.08,0,10.06,0,20.46,0,30.67,0,5.19-3.4,7.77-5,9-.28.21-.58.43-.74.58l-4.61,4.25a15.66,15.66,0,0,1-5.21,6.66L271,123.75a13.46,13.46,0,0,1-4,5.42l-.55.5-4.82,4.6a15.05,15.05,0,0,1-2.82,3.75c-.19.2-.38.39-.56.6A7,7,0,0,1,253,141.17ZM267.57,27l.85,0a9.94,9.94,0,0,1,4.06,1.2A9.44,9.44,0,0,1,277.24,27a10,10,0,0,1,2.45.31,25.9,25.9,0,0,1,7.34-12c-12.35.05-25,.05-37.8,0a24.4,24.4,0,0,1,4,4.8,30.15,30.15,0,0,1,3.28,7.18,11.36,11.36,0,0,1,2.46-.29,9.94,9.94,0,0,1,4.4.95A9.31,9.31,0,0,1,267.57,27ZM231.9,11.2l-6.28.57,6.25-.46Z"/><path class="cls-2" d="M343.1,112.91c0-21.58,0-43.16,0-64.74a96.8,96.8,0,0,0-1.18-15C340.29,23,334.46,17,324.61,14.55a36.41,36.41,0,0,0-6.5-1.26c-2.63-.15-1.54-1.93-1.72-3.17-.25-1.77,1.05-1.36,2-1.34,27.41.35,54.83.34,82.25.3,16,0,31.92-.12,47.87-.87a115.49,115.49,0,0,0,15.85-1.6c.83-.16,1.55-.42,1.35,1.07-1.94,14.57-1.66,29.18-.74,43.81,0,.51,0,1,.07,1.55.07.85.14,1.65-1.1,1.69-.92,0-1.82.39-2.33-.91-.94-2.39-2-4.72-3.08-7.08-5.08-11.49-13.83-18.39-26.22-20.35a137.83,137.83,0,0,0-43.24.11c-9,1.42-12.84,6.1-14,15.18a97.61,97.61,0,0,0-.65,11.72c-.05,13.15,0,26.31-.05,39.46,0,1.8.43,2.35,2.31,2.33,14.63-.22,29.26.28,43.89-.44a51.26,51.26,0,0,0,11.13-1.65c6.7-1.82,10.36-6.26,11.13-13,.26-2.19,1.53-1.63,2.75-1.76,1.65-.16,1.3,1,1.28,1.87-.39,16-.42,31.92,0,47.88,0,.83.36,2-1.16,1.69-1-.19-2.52.86-2.83-1.34-1.08-7.41-5.87-11.23-12.83-12.82-6.39-1.45-12.9-1.63-19.39-1.69-11.45-.12-22.91,0-34.36-.09-1.66,0-1.93.56-1.92,2,.05,18,0,36.06.13,54.09a6,6,0,0,1-1.94,4.77,45.79,45.79,0,0,1-28,13.82c-1.26.15-1.63,0-1.63-1.36q.06-37.14,0-74.27Z"/><path class="cls-2" d="M178.45,212.89c-13.52,0-27,0-40.56,0-.83,0-2.28.73-2.2-1.17.05-1.26-.4-2.57,1.75-2.75a47.91,47.91,0,0,0,7.36-1.46c10.45-2.51,15.92-9.38,17.45-19.81a137.69,137.69,0,0,0,1-19.46c0-9.16,0-18.33.05-27.49a4.67,4.67,0,0,0-1.44-3.51c-5.48-5.8-11-11.59-16.31-17.52-1.31-1.46-1.93-1.23-3.19,0-16.22,15.65-31.67,32.06-46.9,48.67q-19.39,21.15-38.63,42.44a5,5,0,0,1-4.36,1.88,427.92,427.92,0,0,0-43,.45c-2,.13-3-.91-3-3,0-.86.56-.9,1.14-1C24,205.2,36.2,194.85,47.35,183q38.79-41.24,77.5-82.55c.76-.81,1.35-1.33.26-2.47-18.84-19.7-36.89-40.16-56.46-59.16C60.59,31,52,23.72,41.84,18.7,35.26,15.47,28.36,13.46,21,13.64c-2.9.07-1.66-1.87-1.9-3.12C18.8,9,19.54,8.72,21,8.75c26.16.55,52.32.46,78.48,0,1.49,0,2.11.4,1.8,1.82-.25,1.16,1.09,3.22-1.69,3.06a20.88,20.88,0,0,0-6,.46c-4.8,1.1-6.88,4.44-5.7,9.25A29.16,29.16,0,0,0,92.69,33c6.57,9.43,14.52,17.68,22.37,26,25.82,27.43,51.36,55.13,77.47,82.29a7.18,7.18,0,0,1,2.12,5.46c0,12-.45,23.94.37,35.91a50.54,50.54,0,0,0,1.52,9.38c2.33,8.9,8.59,13.58,17.11,15.74a30.43,30.43,0,0,0,5.86,1.11c2.31.13,1.72,1.64,1.78,2.93.08,1.8-1.29,1-2,1q-20.4.06-40.8,0Z"/><path class="cls-3" d="M194.59,135.3c-2.18-2.17-4-3.48-4-6.51.11-29.93.07-59.86.07-89.79,0-.59,0-1.18,0-1.77,0-1.67.05-3.45-2.21-3.66s-3.17.9-3.17,3.61q0,42.23,0,84.47v3.42c-2-1.46-3.33-2.75-3.32-5.22q.1-40.9,0-81.81a16.22,16.22,0,0,0-.17-2.42,2.31,2.31,0,0,0-2.61-2.1,2.45,2.45,0,0,0-2.67,2.12,11.65,11.65,0,0,0-.08,2.21q0,37.8,0,75.6V116c-2.45-2.32-4.05-4.28-4-7.77.2-23.49.11-47,.11-70.49a10.06,10.06,0,0,0-.18-2,2.5,2.5,0,0,0-2.6-2.23,2.28,2.28,0,0,0-2.5,2.25,59.43,59.43,0,0,0-.19,6q0,31.26,0,62.52c0,.35,0,.71-.09,1.59-1.92-1.94-3.83-3.11-3.82-6,.06-19,.07-38-.11-57-.07-6.33-.86-12.6-4-18.33-3-5.5-8.06-8-13.79-9.62-2.84-.77-5.73-1.29-8.63-1.81-1.82-.32-.72-2-.91-3.12-.25-1.4.82-1.25,1.71-1.25,9.39,0,18.77.13,28.16.12q26.72,0,53.43-.1a2.6,2.6,0,0,1,2.41,3.91c-.36.67-1,.43-1.57.54-5.56,1-11.12,2.1-15.89,5.42a18.72,18.72,0,0,0-7.13,10.53c-2,6.88-2.17,14-2.18,21q-.06,41.34,0,82.69Z"/><path class="cls-2" d="M283.72,110.34c0,20.62,0,40.56,0,60.5a97.43,97.43,0,0,0,.53,10c.81,8.33,4.68,12.68,13.32,13.58,17.32,1.78,34.66,1.93,51.81-1.67a43.11,43.11,0,0,0,23.73-13.26c.28-.31.49-.75,1.2-.77-1.9,8.54-3.8,17-9.41,24-5.27,6.59-12.39,9.74-20.64,10-10.48.3-21,.15-31.47.17-28.3,0-56.59,0-84.89.16-2.11,0-2.43-.71-2.32-2.49.06-1,.32-1.31,1.33-1.48q3.81-.65,7.56-1.63c10.21-2.67,15.43-9.6,16.91-19.8a132.81,132.81,0,0,0,.94-19c0-7.68,0-15.37,0-23.05a4.33,4.33,0,0,1,1.33-3.31c6.71-7.06,13.38-14.17,20.06-21.26Z"/><path class="cls-3" d="M280.08,105.23V99.55q0-30.7,0-61.41a10,10,0,0,0,0-1.55c-.24-1.63-.75-3.06-2.8-3.06s-2.69,1.26-2.75,3c-.06,2.07,0,4.14,0,6.21,0,21.65-.12,43.3.07,64.95a9.18,9.18,0,0,1-3.82,8.08c-.52-.74-.26-1.56-.26-2.33q0-38.13,0-76.26c0-1.86-.2-3.47-2.49-3.63-1.74-.13-2.85.6-2.87,2.49q0,3.43-.05,6.87c0,25.72,0,51.43.07,77.15,0,2.41-1.57,3.44-3.11,4.9a8.86,8.86,0,0,1-.35-3.74q0-40.78,0-81.58c0-1.26,0-2.52-.07-3.77-.05-1.67-1-2.36-2.59-2.34s-2.71.71-2.72,2.47c0,3.92,0,7.84,0,11.75,0,27.12-.05,54.24.1,81.36,0,2.64-1.7,3.76-3,5.28-.69.8-.8-.36-.82-.85-.13-2.87-.07-5.74-.06-8.61q.1-33.81,0-67.62a196.3,196.3,0,0,0-.74-20.58c-.51-4.59-1.49-9.11-4-13.11-3.72-5.86-9.63-8.07-16-9.57a33.76,33.76,0,0,0-4.77-.83c-1.09-.1-1.3-.54-1.37-1.52-.19-2.95-.22-3,2.73-3q40.46.27,80.91,0c1,0,2.26-.28,2,1.43-.21,1.19,1,2.77-1.69,3.14-6,.84-11.89,2.06-16.88,5.84-3.91,3-6,7-7.15,11.66-1.84,7.54-1.78,15.21-1.77,22.89,0,15.59,0,31.19,0,46.78C283.79,103,281.68,103.75,280.08,105.23Z"/></g></g></svg>