<svg id="Capa_1" enable-background="new 0 0 512 512" height="512" viewBox="0 0 512 512" width="512" xmlns="http://www.w3.org/2000/svg"><g id="XMLID_2390_"><g id="XMLID_2391_"><g id="XMLID_325_"><path id="XMLID_326_" d="m475 55.265c-74.546 0-148.635-18.696-214.255-54.067-2.961-1.597-6.528-1.597-9.489 0-65.621 35.371-139.709 54.067-214.256 54.067-5.523 0-10 4.477-10 10v156.735c0 33.687 5.614 66.822 16.687 98.486 10.792 30.863 26.501 59.6 46.689 85.412s44.295 47.98 71.65 65.889c28.064 18.374 58.871 31.805 91.566 39.919.791.196 1.6.294 2.409.294s1.618-.098 2.409-.294c39.723-9.859 76.322-27.382 108.781-52.082 4.395-3.345 5.247-9.619 1.902-14.014s-9.619-5.247-14.014-1.902c-29.621 22.54-62.945 38.675-99.079 47.978-123.184-31.724-209-142.265-209-269.686v-146.843c72.668-1.559 144.61-20.077 209-53.832 64.39 33.755 136.332 52.273 209 53.832v146.843c0 57.221-17.281 112.266-49.976 159.184-3.157 4.531-2.044 10.764 2.487 13.922s10.764 2.043 13.922-2.487c35.044-50.291 53.567-109.29 53.567-170.619v-156.735c0-5.523-4.477-10-10-10z"/><path id="XMLID_808_" d="m437 110.98c0-5.156-3.919-9.466-9.052-9.955-58.376-5.561-114.783-21.125-167.654-46.261-2.717-1.292-5.87-1.292-8.587 0-52.871 25.136-109.278 40.7-167.655 46.261-5.132.489-9.052 4.799-9.052 9.955v111.02c0 54.438 17.118 106.2 49.502 149.687 32.284 43.354 76.759 74.52 128.616 90.13.94.283 1.911.424 2.882.424s1.942-.142 2.882-.424c51.857-15.61 96.332-46.776 128.616-90.13 32.384-43.488 49.502-95.249 49.502-149.687zm-20 111.02c0 101.473-64.569 189.414-161 219.778-96.431-30.365-161-118.306-161-219.778v-102.006c55.911-6.301 110.01-21.47 161-45.15 50.99 23.68 105.089 38.849 161 45.15z"/><path id="XMLID_855_" d="m394.71 411.71c-2.63 0-5.21 1.06-7.07 2.93-1.86 1.86-2.93 4.44-2.93 7.07s1.07 5.2 2.93 7.07c1.86 1.86 4.44 2.93 7.07 2.93s5.21-1.07 7.07-2.93 2.93-4.44 2.93-7.07c0-2.64-1.07-5.21-2.93-7.07-1.86-1.87-4.44-2.93-7.07-2.93z"/><path id="XMLID_870_" d="m210 256c0 25.364 20.636 46 46 46 10.166 0 19.297-3.347 26.41-9.681 1.393-1.241 2.716-2.605 3.932-4.055 3.549-4.231 2.996-10.539-1.235-14.088-4.232-3.55-10.54-2.996-14.088 1.235-.596.711-1.24 1.375-1.911 1.973-3.44 3.063-7.85 4.616-13.108 4.616-14.336 0-26-11.664-26-26s11.664-26 26-26c5.211 0 10.236 1.533 14.53 4.435 4.576 3.092 10.792 1.889 13.884-2.688 3.092-4.576 1.888-10.792-2.688-13.884-7.613-5.144-16.509-7.863-25.726-7.863-25.364 0-46 20.636-46 46z"/><path id="XMLID_873_" d="m166 256c0 49.626 40.374 90 90 90s90-40.374 90-90-40.374-90-90-90-90 40.374-90 90zm160 0c0 38.598-31.402 70-70 70s-70-31.402-70-70 31.402-70 70-70 70 31.402 70 70z"/></g></g></g></svg>