<svg height="512" viewBox="0 0 64 64" width="512" xmlns="http://www.w3.org/2000/svg"><g id="outline"><path d="m26 14h2v2h-2z"/><path d="m36 14h2v2h-2z"/><path d="m31 18h2v4h-2z"/><path d="m25 38h14v2h-14z"/><path d="m25 42h4v2h-4z"/><path d="m31 42h2v2h-2z"/><path d="m35 42h2v2h-2z"/><path d="m27 24h10v2h-10z"/><path d="m7 62h50a1 1 0 0 0 1-1v-58a1 1 0 0 0 -1-1h-50a1 1 0 0 0 -1 1v58a1 1 0 0 0 1 1zm12-7h-1a3 3 0 0 1 -3-3v-1h4zm0-6h-4v-2h4zm0-4h-4v-2h4zm1-4h-5v-3a2.053 2.053 0 0 1 2-2h3a1 1 0 0 1 1 1v3a1 1 0 0 1 -1 1zm23 19h-22v-2h22zm0-4h-22v-2h22zm0-4h-22v-2h22zm0-4h-22v-5.184a3 3 0 0 0 2-2.816v-3a2.966 2.966 0 0 0 -.184-1h18.368a2.966 2.966 0 0 0 -.184 1v3a3 3 0 0 0 2 2.816zm0-8v-3a1 1 0 0 1 1-1h3a2.053 2.053 0 0 1 2 2v3h-5a1 1 0 0 1 -1-1zm2 9v-2h4v2zm4 2v1a3 3 0 0 1 -3 3h-1v-4zm-4-6v-2h4v2zm-13-41a8.008 8.008 0 0 1 7.737 6h-1.737c-2.331 0-3.453-.867-5.293-2.707a1 1 0 0 0 -1.414 0c-1.84 1.84-2.962 2.707-5.293 2.707h-1.737a8.008 8.008 0 0 1 7.737-6zm8 8v18h-16v-18h2a7.933 7.933 0 0 0 6-2.6 7.933 7.933 0 0 0 6 2.6zm-32-8h18.025a10.067 10.067 0 0 0 -2.025 2.025v-.025h-12v2h10.841a9.929 9.929 0 0 0 -.841 4h-10v2h10v.1a5.016 5.016 0 0 0 -3.9 3.9h-6.1v2h6.1a5.016 5.016 0 0 0 3.9 3.9v.1h-10v2h10v4h-10v2h40v-2h-10v-4h10v-2h-10v-.1a5.016 5.016 0 0 0 3.9-3.9h6.1v-2h-6.1a5.016 5.016 0 0 0 -3.9-3.9v-.1h10v-2h-10a9.929 9.929 0 0 0 -.841-4h10.841v-2h-12v.025a10.067 10.067 0 0 0 -2.025-2.025h18.025v56h-11v-3h1a5.006 5.006 0 0 0 5-5v-14a4.054 4.054 0 0 0 -4-4h-30a4.054 4.054 0 0 0 -4 4v14a5.006 5.006 0 0 0 5 5h1v3h-11zm14 12.171v5.658a3 3 0 0 1 0-5.658zm20 5.658v-5.658a3 3 0 0 1 0 5.658z"/></g></svg>