<svg id="Capa_1" enable-background="new 0 0 512 512" height="512" viewBox="0 0 512 512" width="512" xmlns="http://www.w3.org/2000/svg"><g><g><path d="m353.919 190.608h-160.377c-4.41 0-7.984 3.575-7.984 7.985s3.575 7.984 7.984 7.984h160.376c4.409 0 7.985-3.575 7.985-7.984s-3.575-7.985-7.984-7.985z"/><path d="m361.903 229.97c0-4.409-3.575-7.984-7.985-7.984h-160.376c-4.41 0-7.984 3.575-7.984 7.984s3.575 7.985 7.984 7.985h160.376c4.41-.001 7.985-3.576 7.985-7.985z"/><path d="m348.831 287.421c0-4.409-3.575-7.984-7.984-7.984h-147.305c-4.41 0-7.984 3.575-7.984 7.984s3.575 7.984 7.984 7.984h147.304c4.41 0 7.985-3.575 7.985-7.984z"/><path d="m333.806 318.797c0-4.409-3.575-7.984-7.984-7.984h-132.28c-4.41 0-7.984 3.575-7.984 7.984s3.575 7.985 7.984 7.985h132.279c4.41 0 7.985-3.575 7.985-7.985z"/><path d="m193.542 368.264c-4.41 0-7.984 3.575-7.984 7.984s3.575 7.985 7.984 7.985h104.769c4.409 0 7.984-3.575 7.984-7.985 0-4.409-3.575-7.984-7.984-7.984z"/><path d="m283.286 399.64h-89.744c-4.41 0-7.984 3.575-7.984 7.984s3.575 7.984 7.984 7.984h89.744c4.409 0 7.984-3.575 7.984-7.984.001-4.409-3.574-7.984-7.984-7.984z"/><path d="m460.56 175.997c-15.823-7.574-34.861-.867-42.441 14.956l-120.307 251.241c-1.655 3.461-2.596 7.155-2.792 10.978l-2.322 44.716c-.282 5.423 2.701 10.444 7.6 12.79 4.878 2.335 10.659 1.541 14.73-2.097l27.667-24.734h38.847c19.771 0 35.856-16.085 35.856-35.856v-108.18c6.555-13.689 50.809-106.105 58.12-121.373 7.576-15.823.867-34.863-14.958-42.441zm-13.717 12.85c2.292 0 4.619.499 6.821 1.554 3.819 1.828 6.696 5.034 8.103 9.027 1.407 3.992 1.174 8.294-.654 12.113l-6.366 13.293-28.591-13.691 6.366-13.293c2.721-5.68 8.406-9.003 14.321-9.003zm-3.817 60.466-28.591-13.691 4.825-10.075 28.591 13.691zm-98.771 206.265-28.59-13.691 91.873-191.862 28.591 13.69c-2.906 6.07-89.773 187.475-91.874 191.863zm-35.291 37.003 1.833-35.318 24.532 11.747zm92.464-44.591c0 10.966-8.921 19.887-19.887 19.887h-25.469l45.356-94.718z"/><path d="m267.326 467.877h-198.105c-10.966 0-19.887-8.921-19.887-19.887v-339.342c0-1.207.107-2.397.316-3.56h63.538c13.93 0 25.264-11.333 25.264-25.263v-63.54c1.163-.209 2.353-.316 3.56-.316h239.528c10.966 0 19.887 8.921 19.887 19.887v146.852c0 4.409 3.575 7.985 7.984 7.985s7.984-3.575 7.984-7.985v-146.852c.002-19.771-16.083-35.856-35.854-35.856h-239.528c-9.578 0-18.582 3.73-25.354 10.502l-72.792 72.792c-6.772 6.772-10.502 15.776-10.502 25.353v339.343c0 19.771 16.085 35.856 35.856 35.856h198.105c4.409 0 7.984-3.575 7.984-7.984.001-4.41-3.575-7.985-7.984-7.985zm-144.842-440.616v52.563c0 5.125-4.17 9.294-9.295 9.294h-52.562z"/><path d="m159.038 197.087c0-10.477-8.523-19-19.001-19h-32.178c-10.477 0-19.001 8.523-19.001 19v32.179c0 10.477 8.523 19 19.001 19h32.178c10.477 0 19.001-8.523 19.001-19zm-15.969 32.179c0 1.672-1.36 3.031-3.032 3.031h-32.178c-1.672 0-3.032-1.36-3.032-3.031v-32.179c0-1.672 1.36-3.031 3.032-3.031h32.178c1.672 0 3.032 1.36 3.032 3.031z"/><path d="m159.038 287.02c0-10.478-8.523-19.001-19.001-19.001h-32.178c-10.477 0-19.001 8.523-19.001 19.001v32.178c0 10.478 8.523 19.001 19.001 19.001h32.178c10.477 0 19.001-8.523 19.001-19.001zm-15.969 32.178c0 1.672-1.36 3.032-3.032 3.032h-32.178c-1.672 0-3.032-1.361-3.032-3.032v-32.178c0-1.672 1.36-3.032 3.032-3.032h32.178c1.672 0 3.032 1.361 3.032 3.032z"/><path d="m140.037 357.952h-32.178c-10.477 0-19.001 8.523-19.001 19v32.179c0 10.477 8.523 19 19.001 19h32.178c10.477 0 19.001-8.523 19.001-19v-32.179c0-10.477-8.523-19-19.001-19zm3.032 51.179c0 1.672-1.36 3.031-3.032 3.031h-32.178c-1.672 0-3.032-1.36-3.032-3.031v-32.179c0-1.672 1.36-3.031 3.032-3.031h32.178c1.672 0 3.032 1.36 3.032 3.031z"/><path d="m244.025 150.352c11.65 10.394 27.005 16.719 43.81 16.719 16.807 0 32.164-6.327 43.815-16.723.394-.298.757-.63 1.086-.991 12.9-12.034 20.978-29.173 20.978-48.164 0-36.325-29.553-65.877-65.878-65.877s-65.878 29.552-65.878 65.877c0 18.989 8.076 36.126 20.973 48.16.33.364.696.699 1.094.999zm14.322-8.916c3.515-7.298 9.714-13.16 17.233-16.222 3.806 1.819 7.975 2.767 12.255 2.767 4.281 0 8.45-.948 12.256-2.767 7.519 3.062 13.718 8.923 17.232 16.221-8.267 6.075-18.466 9.667-29.489 9.667-11.021 0-21.22-3.592-29.487-9.666zm36.492-31.569c-.011.008-.023.015-.034.023-2.06 1.389-4.469 2.122-6.97 2.122-2.508 0-4.926-.739-6.99-2.136-3.45-2.334-5.51-6.209-5.51-10.366 0-6.893 5.607-12.5 12.5-12.5s12.501 5.607 12.501 12.5c0 4.151-2.054 8.022-5.497 10.357zm-7.004-58.582c27.52 0 49.909 22.388 49.909 49.908 0 10.485-3.25 20.224-8.795 28.264-4.113-6.515-9.716-11.948-16.37-15.86 2.408-4.229 3.726-9.067 3.726-14.086 0-15.698-12.772-28.469-28.47-28.469s-28.469 12.771-28.469 28.469c0 5.019 1.318 9.857 3.725 14.086-6.654 3.913-12.257 9.345-16.37 15.86-5.545-8.041-8.795-17.78-8.795-28.264.001-27.52 22.389-49.908 49.909-49.908z"/></g></g></svg>