<svg id="Layer_3" enable-background="new 0 0 64 64" height="512" viewBox="0 0 64 64" width="512" xmlns="http://www.w3.org/2000/svg"><g><path d="m59 19.101v-11.101c0-.336-.169-.65-.449-.835-.281-.185-.637-.215-.945-.084l-9.129 3.913c-2.671-5.884-8.59-9.994-15.461-9.994-9.364 0-16.983 7.619-16.983 16.984 0 2.256.451 4.406 1.253 6.377l-1.253.537-7.586-3.793c-.138-.069-.292-.105-.447-.105h-6c-.553 0-1 .448-1 1v22c0 .553.447 1 1 1h6c.155 0 .309-.036.447-.105l7.586-3.793.967.414v20.484c0 .553.447 1 1 1h13c.553 0 1-.447 1-1v-3h3c.553 0 1-.447 1-1v-6c0-.553-.447-1-1-1h-3v-3.055l25.606 10.974c.126.055.26.081.394.081.192 0 .385-.056.551-.165.28-.186.449-.499.449-.835v-11.101c2.279-.465 4-2.484 4-4.899v-18c0-2.414-1.721-4.434-4-4.899zm-25.984-16.101c8.262 0 14.984 6.722 14.984 14.984s-6.722 14.984-14.984 14.984-14.983-6.722-14.983-14.984 6.721-14.984 14.983-14.984zm0 31.968c9.365 0 16.984-7.619 16.984-16.984 0-1.787-.281-3.508-.795-5.127l1.795-.769v41.824l-34-14.571v-12.682l1.144-.49c2.895 5.24 8.474 8.799 14.872 8.799zm-30.016-11.968h4v20h-4zm12 16.382-6 3v-18.764l6 3zm4 9.618h2v8h-2zm15 4v4h-2v-4zm-4 8h-11v-2h3c.553 0 1-.447 1-1v-10c0-.553-.447-1-1-1h-3v-4.627l11 4.714zm27-4.517-4-1.714v-43.538l4-1.714zm4-14.483c0 1.302-.839 2.402-2 2.816v-23.632c1.161.414 2 1.514 2 2.816z"/><path d="m28 26c.256 0 .512-.098.707-.293l3-3c.391-.391.391-1.023 0-1.414l-.293-.293.836-.836 8.543 8.543c.195.195.451.293.707.293s.512-.098.707-.293l2.5-2.5c.391-.391.391-1.023 0-1.414l-8.543-8.543.836-.836.293.293c.195.195.451.293.707.293s.512-.098.707-.293l3-3c.391-.391.391-1.023 0-1.414l-7-7c-.391-.391-1.023-.391-1.414 0l-3 3c-.391.391-.391 1.023 0 1.414l.293.293-5.586 5.586-.293-.293c-.391-.391-1.023-.391-1.414 0l-3 3c-.391.391-.391 1.023 0 1.414l7 7c.195.195.451.293.707.293zm14.586-.5-1.086 1.086-7.836-7.836 1.086-1.086zm-8.586-19.086 5.586 5.586-1.586 1.586-5.586-5.586zm-2 4 3.586 3.586-5.586 5.586-3.586-3.586zm-8 6 5.586 5.586-1.586 1.586-5.586-5.586z"/></g></svg>