<?xml version="1.0" encoding="utf-8"?>
<!-- Generator: Adobe Illustrator 23.0.6, SVG Export Plug-In . SVG Version: 6.00 Build 0)  -->
<svg version="1.1" id="Layer_3" xmlns="http://www.w3.org/2000/svg" xmlns:xlink="http://www.w3.org/1999/xlink" x="0px" y="0px"
	 viewBox="0 0 512 512" style="enable-background:new 0 0 512 512;" xml:space="preserve">
<style type="text/css">
	.st0{fill:#FFFFFF;}
</style>
<g>
	<path class="st0" d="M472,152.8V64c0-2.7-1.4-5.2-3.6-6.7c-2.2-1.5-5.1-1.7-7.6-0.7l-73,31.3C366.4,40.9,319.1,8,264.1,8
		c-74.9,0-135.9,61-135.9,135.9c0,18,3.6,35.2,10,51l-10,4.3l-60.7-30.3c-1.1-0.6-2.3-0.8-3.6-0.8H16c-4.4,0-8,3.6-8,8v176
		c0,4.4,3.6,8,8,8h48c1.2,0,2.5-0.3,3.6-0.8l60.7-30.3l7.7,3.3V496c0,4.4,3.6,8,8,8h104c4.4,0,8-3.6,8-8v-24h24c4.4,0,8-3.6,8-8v-48
		c0-4.4-3.6-8-8-8h-24v-24.4l204.8,87.8c1,0.4,2.1,0.6,3.2,0.6c1.5,0,3.1-0.4,4.4-1.3c2.2-1.5,3.6-4,3.6-6.7v-88.8
		c18.2-3.7,32-19.9,32-39.2V192C504,172.7,490.2,156.5,472,152.8L472,152.8z M264.1,24C330.2,24,384,77.8,384,143.9
		s-53.8,119.9-119.9,119.9S144.3,210,144.3,143.9S198,24,264.1,24z M264.1,279.7c74.9,0,135.9-61,135.9-135.9
		c0-14.3-2.2-28.1-6.4-41l14.4-6.2v334.6L136,314.7V213.3l9.2-3.9C168.3,251.3,212.9,279.7,264.1,279.7z M24,184h32v160H24V184z
		 M120,315.1l-48,24V188.9l48,24V315.1z M152,392h16v64h-16V392z M272,424v32h-16v-32H272z M240,488h-88v-16h24c4.4,0,8-3.6,8-8v-80
		c0-4.4-3.6-8-8-8h-24v-37l88,37.7V488z M456,451.9l-32-13.7V89.8l32-13.7V451.9z M488,336c0,10.4-6.7,19.2-16,22.5V169.5
		c9.3,3.3,16,12.1,16,22.5V336z"/>
	<path class="st0" d="M224,208c2,0,4.1-0.8,5.7-2.3l24-24c3.1-3.1,3.1-8.2,0-11.3l-2.3-2.3l6.7-6.7l68.3,68.3
		c1.6,1.6,3.6,2.3,5.7,2.3s4.1-0.8,5.7-2.3l20-20c3.1-3.1,3.1-8.2,0-11.3L289.3,130l6.7-6.7l2.3,2.3c1.6,1.6,3.6,2.3,5.7,2.3
		s4.1-0.8,5.7-2.3l24-24c3.1-3.1,3.1-8.2,0-11.3l-56-56c-3.1-3.1-8.2-3.1-11.3,0l-24,24c-3.1,3.1-3.1,8.2,0,11.3l2.3,2.3L200,116.7
		l-2.3-2.3c-3.1-3.1-8.2-3.1-11.3,0l-24,24c-3.1,3.1-3.1,8.2,0,11.3l56,56C219.9,207.2,222,208,224,208L224,208z M340.7,204
		l-8.7,8.7L269.3,150l8.7-8.7L340.7,204z M272,51.3L316.7,96L304,108.7L259.3,64L272,51.3z M256,83.3l28.7,28.7L240,156.7L211.3,128
		L256,83.3z M192,131.3l44.7,44.7L224,188.7L179.3,144L192,131.3z"/>
</g>
</svg>
