<svg id="Capa_1" enable-background="new 0 0 512 512" height="512" viewBox="0 0 512 512" width="512" xmlns="http://www.w3.org/2000/svg"><g><path d="m188.927 329.889h33.006c13.507 0 24.495-10.988 24.495-24.495v-25.029c0-13.507-10.988-24.495-24.495-24.495h-33.006c-13.507 0-24.495 10.988-24.495 24.495v25.029c0 13.507 10.988 24.495 24.495 24.495zm-9.495-49.524c0-5.236 4.26-9.495 9.495-9.495h33.006c5.235 0 9.495 4.259 9.495 9.495v25.029c0 5.236-4.26 9.495-9.495 9.495h-33.006c-5.235 0-9.495-4.259-9.495-9.495z"/><path d="m504.5 403.897h-4.025l-19.584-43.518c10.53-4.241 17.986-14.556 17.986-26.587 0-15.8-12.854-28.655-28.654-28.655h-53.595v-17.073c0-5.747-2.05-11.161-5.768-15.391v-112.858c0-.312-.025-.618-.062-.92-.42-11.392-4.486-22.424-11.853-31.503-10.153-12.513-25.219-19.69-41.334-19.69h-29.33v-37.79c0-36.255-29.491-65.75-65.74-65.75h-114.221c-8.062 0-15.954 1.455-23.459 4.325-3.869 1.479-5.806 5.815-4.326 9.684 1.478 3.868 5.812 5.807 9.684 4.327 5.788-2.213 11.878-3.335 18.102-3.335h114.22c27.979 0 50.74 22.766 50.74 50.75v37.79h-28.891v-37.79c0-12.048-9.802-21.85-21.85-21.85h-114.22c-12.049 0-21.851 9.802-21.851 21.85v37.79h-28.889v-37.79c0-11.759 4.13-23.226 11.628-32.29 2.641-3.191 2.194-7.919-.997-10.56-3.191-2.639-7.919-2.194-10.56.998-9.718 11.745-15.071 26.608-15.071 41.85v37.79h-29.34c-16.11 0-31.173 7.176-41.325 19.688-7.367 9.079-11.433 20.11-11.853 31.501-.037.304-.062.611-.062.925v180.677c0 48.772 39.679 88.451 88.451 88.451h189.799c6.644 14.293 21.129 24.232 37.901 24.232 19.338 0 35.643-13.208 40.382-31.075 4.585-1.921 9.007-4.234 13.211-6.902v45.913h-28.177c-12.883 0-23.364 10.481-23.364 23.364s10.481 23.364 23.364 23.364h103.236c12.883 0 23.364-10.481 23.364-23.364s-10.481-23.364-23.364-23.364h-28.178v-62.227c13.575-7.271 23.412-20.647 25.806-36.437h16.189l-18.655 41.45h-4.025c-4.143 0-7.5 3.358-7.5 7.5 0 23.037 18.742 41.778 41.779 41.778s41.781-18.742 41.781-41.778c0-4.142-3.357-7.5-7.5-7.5zm-119.755-98.76v-17.073c0-4.654 3.787-8.441 8.441-8.441 2.26 0 4.371.874 5.982 2.496 1.585 1.574 2.458 3.685 2.458 5.945v17.073zm11.114-40.359c-2.533-.3-5.222-.157-7.674.387 2.119-4.236 3.733-8.782 4.744-13.571l2.931-13.929v27.113zm-254.389-194.867c0-3.777 3.073-6.85 6.851-6.85h114.22c3.777 0 6.85 3.073 6.85 6.85v37.79h-127.921zm-53.019 344.032c-40.501 0-73.451-32.95-73.451-73.451v-102.827l2.931 13.93c5.51 26.17 28.917 45.165 55.659 45.165h62.489v19.226c0 21.438 17.441 38.88 38.88 38.88h60.942c21.438 0 38.88-17.442 38.88-38.88v-19.226h31.009c4.143 0 7.5-3.358 7.5-7.5s-3.357-7.5-7.5-7.5h-31.009v-11.988c0-21.438-17.441-38.88-38.88-38.88h-60.942c-21.438 0-38.88 17.441-38.88 38.88v11.988h-62.489c-19.689 0-36.925-13.986-40.98-33.254l-16.771-79.711c-2.383-11.321.433-22.968 7.725-31.955 7.291-8.986 18.107-14.14 29.677-14.14h304.37c11.574 0 22.395 5.154 29.687 14.141 7.292 8.986 10.107 20.633 7.725 31.955l-16.771 79.706c-4.064 19.271-21.3 33.258-40.981 33.258h-1.5c-4.143 0-7.5 3.358-7.5 7.5s3.357 7.5 7.5 7.5h1.5c11.945 0 23.221-3.801 32.539-10.333-.038.541-.063 1.085-.063 1.636v17.073h-53.594c-15.801 0-28.655 12.854-28.655 28.655 0 12.03 7.456 22.346 17.986 26.587l-19.585 43.518h-4.024c-4.143 0-7.5 3.358-7.5 7.5 0 .856.034 1.703.085 2.546h-186.009zm62.628-124.663c0-.007.001-.013.001-.02s-.001-.013-.001-.02v-19.469c0-13.167 10.713-23.88 23.88-23.88h60.942c13.167 0 23.88 10.712 23.88 23.88v46.214c0 13.167-10.713 23.88-23.88 23.88h-60.942c-13.167 0-23.88-10.713-23.88-23.88zm204.556 116.724c-1.349-1.302-3.182-2.107-5.205-2.107h-4.024l-18.655-41.45h16.188c2.298 15.155 11.454 28.082 24.189 35.526-3.885 3.091-8.079 5.785-12.493 8.031zm-25.678-2.107h-27.611l13.806-30.675zm-13.806 34.278c-12.163 0-22.458-8.152-25.71-19.278h.305 50.811.305c-3.253 11.126-13.548 19.278-25.711 19.278zm137.018 46.3c0 4.612-3.752 8.364-8.364 8.364h-103.237c-4.612 0-8.364-3.752-8.364-8.364s3.752-8.364 8.364-8.364h103.236c4.613 0 8.365 3.752 8.365 8.364zm-51.542-23.364h-16.882v-57.08c2.746.471 5.563.727 8.441.727 2.877 0 5.695-.256 8.44-.727v57.08zm33.869-113.664c-4.143 0-7.5 3.358-7.5 7.5 0 19.194-15.615 34.81-34.81 34.81s-34.811-15.616-34.811-34.81c0-4.142-3.357-7.5-7.5-7.5h-34.725c-7.529 0-13.655-6.125-13.655-13.655 0-7.529 6.126-13.655 13.655-13.655h154.07c7.529 0 13.654 6.126 13.654 13.655s-6.125 13.655-13.654 13.655zm34.726 25.775 13.805 30.675h-27.61zm0 64.953c-12.163 0-22.459-8.152-25.711-19.278h.306 50.81.306c-3.253 11.126-13.548 19.278-25.711 19.278z"/><path d="m393.187 332.251c-12.395 0-22.478 10.083-22.478 22.478s10.083 22.477 22.478 22.477 22.478-10.083 22.478-22.477-10.084-22.478-22.478-22.478zm0 29.954c-4.123 0-7.478-3.354-7.478-7.477s3.354-7.478 7.478-7.478 7.478 3.354 7.478 7.478-3.355 7.477-7.478 7.477z"/></g></svg>