<?xml version="1.0" encoding="utf-8"?>
<!-- Generator: Adobe Illustrator 23.0.6, SVG Export Plug-In . SVG Version: 6.00 Build 0)  -->
<svg version="1.1" id="Layer_3" xmlns="http://www.w3.org/2000/svg" xmlns:xlink="http://www.w3.org/1999/xlink" x="0px" y="0px"
	 viewBox="0 0 512 512" style="enable-background:new 0 0 512 512;" xml:space="preserve">
<style type="text/css">
	.st0{fill:#FFFFFF;}
</style>
<g>
	<path class="st0" d="M144,200h68.7l37.7,37.7c1.6,1.6,3.6,2.3,5.7,2.3s4.1-0.8,5.7-2.3l37.7-37.7H368c17.6,0,32-14.4,32-32V40
		c0-17.6-14.4-32-32-32H144c-17.6,0-32,14.4-32,32v128C112,185.6,126.4,200,144,200z M128,40c0-8.8,7.2-16,16-16h224
		c8.8,0,16,7.2,16,16v128c0,8.8-7.2,16-16,16h-72c-2.1,0-4.2,0.8-5.7,2.3L256,220.7l-34.3-34.3c-1.5-1.5-3.5-2.3-5.7-2.3h-72
		c-8.8,0-16-7.2-16-16V40z"/>
	<path class="st0" d="M212.7,160c5.2,5.2,12,8,19.3,8s14.2-2.8,19.3-8l82.3-82.3c3.1-3.1,3.1-8.2,0-11.3l-24-24
		c-3.1-3.1-8.2-3.1-11.3,0L232,108.7l-18.3-18.3c-3.1-3.1-8.2-3.1-11.3,0l-24,24c-3.1,3.1-3.1,8.2,0,11.3L212.7,160z M208,107.3
		l18.3,18.3c3.1,3.1,8.2,3.1,11.3,0L304,59.3L316.7,72L240,148.7c-4.3,4.3-11.7,4.3-16,0L195.3,120L208,107.3z"/>
	<path class="st0" d="M496,264h-80c-4.4,0-8,3.6-8,8v8H104v-8c0-4.4-3.6-8-8-8H16c-4.4,0-8,3.6-8,8v168c0,4.4,3.6,8,8,8h80
		c4.4,0,8-3.6,8-8v-8h28.7l63,63c5.8,5.8,13.5,9,21.7,9c14,0,25.8-9.6,29.4-22.5c5.3,4.1,11.8,6.5,18.6,6.5c14,0,25.8-9.6,29.4-22.5
		c5.3,4.1,11.8,6.5,18.6,6.5c14,0,25.8-9.6,29.4-22.5c5.3,4.1,11.8,6.5,18.6,6.5c14.6,0,26.8-10.3,29.9-24H408v8c0,4.4,3.6,8,8,8h80
		c4.4,0,8-3.6,8-8V272C504,267.6,500.4,264,496,264z M88,432H24V280h64V432z M361.4,440c-3.8,0-7.6-1.6-10.3-4.3l-65.4-65.4
		l-11.3,11.3l49.4,49.4c2.8,2.8,4.3,6.4,4.3,10.3c0,8.1-6.6,14.6-14.6,14.6c-3.8,0-7.6-1.6-10.3-4.3l-57.4-57.4l-11.3,11.3
		l41.4,41.4c2.8,2.8,4.3,6.4,4.3,10.3c0,8.1-6.6,14.6-14.6,14.6c-3.8,0-7.6-1.6-10.3-4.3l-49.4-49.4l-11.3,11.3l33.4,33.4
		c2.8,2.8,4.3,6.4,4.3,10.3c0,8.1-6.6,14.6-14.6,14.6c-3.8,0-7.6-1.6-10.3-4.3l-65.4-65.4c-1.5-1.5-3.5-2.3-5.7-2.3h-32V296h116.7
		L185,331.7c-5.8,5.8-9,13.5-9,21.6c0,16.9,13.7,30.6,30.6,30.6c8.2,0,15.9-3.2,21.7-9l39-39h25.4l79,79c2.8,2.8,4.3,6.4,4.3,10.3
		C376,433.4,369.4,440,361.4,440L361.4,440z M390.4,416c-1.5-4.6-3.9-8.8-7.4-12.3l-81.4-81.4c-1.5-1.5-3.5-2.3-5.7-2.3h-32
		c-2.1,0-4.2,0.8-5.7,2.3L217,363.7c-2.7,2.7-6.5,4.3-10.3,4.3c-8.1,0-14.6-6.6-14.6-14.6c0-3.9,1.5-7.6,4.3-10.3l47-47H408v120
		L390.4,416z M488,432h-64V280h64V432z"/>
</g>
</svg>
