<svg id="Layer_3" enable-background="new 0 0 64 64" height="512" viewBox="0 0 64 64" width="512" xmlns="http://www.w3.org/2000/svg"><g><path d="m18 25h8.586l4.707 4.707c.195.195.451.293.707.293s.512-.098.707-.293l4.707-4.707h8.586c2.206 0 4-1.794 4-4v-16c0-2.206-1.794-4-4-4h-28c-2.206 0-4 1.794-4 4v16c0 2.206 1.794 4 4 4zm-2-20c0-1.103.897-2 2-2h28c1.103 0 2 .897 2 2v16c0 1.103-.897 2-2 2h-9c-.266 0-.52.105-.707.293l-4.293 4.293-4.293-4.293c-.187-.188-.441-.293-.707-.293h-9c-1.103 0-2-.897-2-2z"/><path d="m26.586 20c.646.645 1.503 1 2.414 1s1.769-.355 2.414-1l10.293-10.293c.391-.391.391-1.023 0-1.414l-3-3c-.391-.391-1.023-.391-1.414 0l-8.293 8.293-2.293-2.293c-.391-.391-1.023-.391-1.414 0l-3 3c-.391.391-.391 1.023 0 1.414zm-.586-6.586 2.293 2.293c.391.391 1.023.391 1.414 0l8.293-8.293 1.586 1.586-9.586 9.585c-.535.535-1.465.535-2 0l-3.586-3.585z"/><path d="m62 33h-10c-.553 0-1 .448-1 1v1h-38v-1c0-.552-.447-1-1-1h-10c-.553 0-1 .448-1 1v21c0 .552.447 1 1 1h10c.553 0 1-.448 1-1v-1h3.586l7.879 7.878c.723.724 1.683 1.122 2.707 1.122 1.755 0 3.223-1.195 3.673-2.809.666.515 1.47.809 2.327.809 1.755 0 3.223-1.195 3.673-2.809.666.515 1.47.809 2.327.809 1.755 0 3.223-1.195 3.673-2.809.666.515 1.47.809 2.327.809 1.825 0 3.352-1.287 3.732-3h2.096v1c0 .552.447 1 1 1h10c.553 0 1-.448 1-1v-21c0-.552-.447-1-1-1zm-51 21h-8v-19h8zm34.172 1c-.481 0-.952-.195-1.293-.536l-8.172-8.171-1.414 1.414 6.173 6.172c.344.346.534.805.534 1.292 0 1.009-.82 1.829-1.828 1.829-.481 0-.952-.195-1.293-.536l-7.172-7.171-1.414 1.414 5.173 5.172c.344.346.534.805.534 1.292 0 1.009-.82 1.829-1.828 1.829-.481 0-.952-.195-1.293-.536l-6.172-6.171-1.414 1.414 4.173 4.173c.344.345.534.804.534 1.291 0 1.009-.82 1.829-1.828 1.829-.481 0-.952-.195-1.293-.536l-8.172-8.171c-.187-.188-.441-.293-.707-.293h-4v-15h14.586l-4.465 4.465c-.723.723-1.121 1.684-1.121 2.706 0 2.112 1.718 3.829 3.828 3.829 1.023 0 1.984-.398 2.707-1.122l4.879-4.878h3.172l9.879 9.878c.345.346.535.805.535 1.293 0 1.009-.82 1.829-1.828 1.829zm3.627-3c-.184-.57-.485-1.099-.921-1.536l-10.171-10.171c-.187-.188-.441-.293-.707-.293h-4c-.266 0-.52.105-.707.293l-5.172 5.172c-.341.34-.811.535-1.293.535-1.008 0-1.828-.82-1.828-1.829 0-.488.19-.948.535-1.293l5.879-5.878h20.586v15zm12.201 2h-8v-19h8z"/></g></svg>